<?xml version="1.0" standalone="no"?>
<!DOCTYPE svg PUBLIC "-//W3C//DTD SVG 20010904//EN"
 "http://www.w3.org/TR/2001/REC-SVG-20010904/DTD/svg10.dtd">
<svg version="1.0" xmlns="http://www.w3.org/2000/svg"
 width="5120.000000pt" height="1067.000000pt" viewBox="0 0 5120.000000 1067.000000"
 preserveAspectRatio="xMidYMid meet">

<g transform="translate(0.000000,1067.000000) scale(0.100000,-0.100000)"
fill="#000000" stroke="none">
<path d="M26709 7473 c-17 -38 -39 -87 -50 -110 -10 -24 -19 -45 -19 -48 0 -3
-9 -27 -21 -53 -12 -26 -25 -57 -30 -69 -11 -27 -7 -20 -104 -241 -41 -95 -75
-175 -75 -177 0 -2 -13 -32 -29 -67 -52 -114 -68 -152 -94 -225 -23 -62 -24
-73 -11 -84 21 -17 146 -79 160 -79 6 0 26 -42 44 -92 17 -51 38 -106 45 -123
7 -16 23 -57 36 -90 32 -85 46 -104 70 -98 30 8 46 40 59 113 6 36 15 88 20
115 6 28 13 101 16 163 l7 112 -37 0 c-43 0 -42 -3 -21 136 8 54 18 128 21
164 3 36 10 81 15 100 5 19 9 49 9 66 0 34 28 110 37 101 3 -4 9 -41 14 -84
11 -93 36 -279 57 -415 9 -59 2 -81 -23 -72 -7 3 -15 2 -18 -3 -3 -4 -8 -76
-12 -160 -8 -181 6 -295 39 -318 30 -22 66 -19 66 5 0 10 4 29 9 42 5 13 22
61 36 108 37 115 76 190 120 229 37 32 52 40 135 71 40 15 45 20 43 46 -1 16
-18 62 -38 102 -19 40 -35 75 -35 77 0 3 -10 27 -21 53 -12 26 -27 61 -34 77
-7 17 -22 50 -33 75 -11 25 -50 117 -87 205 -37 88 -75 178 -86 201 -10 22
-28 65 -39 95 -12 30 -28 68 -35 84 -7 17 -23 54 -36 83 -12 28 -27 52 -31 52
-5 0 -23 -30 -39 -67z"/>
<path d="M20866 6803 c-59 -43 -142 -102 -184 -132 -84 -59 -141 -115 -143
-140 -1 -9 -3 -26 -4 -39 -2 -15 11 -33 40 -60 65 -57 123 -103 181 -143 28
-20 80 -59 115 -86 82 -64 100 -73 142 -73 49 0 77 34 77 92 0 48 6 42 -138
156 -10 7 -12 15 -6 21 5 5 949 11 2121 15 1623 4 2117 9 2132 18 22 13 41 50
41 77 0 28 -37 69 -73 79 -20 7 -793 12 -2121 16 -1149 3 -2091 8 -2094 11 -8
7 35 51 91 92 43 32 47 38 47 78 0 36 -5 48 -31 69 -49 41 -73 35 -193 -51z"/>
<path d="M30171 6854 c-25 -20 -31 -34 -31 -64 0 -33 6 -44 48 -80 26 -23 57
-47 69 -53 22 -10 38 -35 28 -45 -2 -3 -494 -7 -1092 -9 -695 -3 -1100 -8
-1121 -15 -45 -14 -66 -48 -59 -98 10 -76 -90 -69 1154 -76 615 -4 1122 -10
1127 -14 5 -5 -19 -28 -51 -52 -104 -75 -131 -143 -77 -193 53 -49 102 -31
285 109 244 186 249 191 249 244 0 45 8 37 -169 174 -275 214 -297 225 -360
172z"/>
<path d="M27323 6177 c-5 -7 -15 -36 -24 -66 -8 -30 -22 -58 -30 -62 -172 -83
-311 -163 -319 -184 -8 -22 -3 -23 180 -45 47 -5 114 -14 150 -20 36 -5 104
-13 152 -19 48 -5 91 -11 95 -14 4 -3 33 -7 63 -11 30 -3 73 -8 95 -11 22 -2
69 -7 105 -10 35 -3 66 -7 67 -9 2 -2 1 -10 -3 -19 -7 -20 -55 -34 -144 -43
-36 -3 -68 -8 -71 -10 -3 -2 -37 -6 -75 -9 -113 -10 -300 -36 -546 -77 -38 -6
-68 -15 -68 -21 0 -5 17 -30 38 -57 38 -48 90 -87 175 -130 68 -34 94 -64 113
-132 l17 -59 18 31 c10 16 27 30 38 30 17 0 38 8 161 62 25 11 59 26 75 33 51
21 98 42 145 63 38 17 114 49 405 171 11 5 31 13 45 18 125 51 253 115 258
130 2 7 -9 18 -25 24 -29 11 -55 22 -135 58 -26 11 -54 21 -61 21 -7 0 -17 4
-22 8 -6 5 -26 15 -45 22 -19 8 -62 26 -95 40 -33 15 -116 51 -185 80 -69 29
-143 60 -165 70 -22 10 -67 29 -100 43 -33 14 -108 45 -167 70 -77 32 -110 42
-115 34z"/>
<path d="M26065 6156 c-56 -26 -170 -78 -190 -86 -11 -4 -36 -15 -55 -23 -19
-9 -60 -25 -90 -37 -30 -12 -68 -28 -85 -35 -101 -46 -236 -105 -240 -105 -3
0 -27 -10 -53 -21 -26 -12 -60 -27 -77 -34 -16 -7 -55 -24 -85 -38 -30 -13
-72 -30 -92 -38 -21 -7 -38 -19 -38 -26 0 -13 133 -79 225 -113 45 -16 162
-67 453 -196 43 -19 103 -44 127 -54 11 -4 36 -15 55 -23 83 -36 161 -66 187
-71 26 -6 30 -3 52 43 25 54 69 89 136 111 22 7 45 16 50 20 6 3 30 13 54 20
57 18 114 71 109 102 -3 25 -7 26 -198 48 -52 5 -122 15 -155 20 -72 12 -179
26 -296 40 -75 8 -129 17 -216 36 -13 2 -23 11 -23 19 0 11 13 15 48 16 26 0
56 2 67 4 84 16 104 19 200 30 76 9 114 14 180 25 33 5 83 12 110 15 28 3 79
10 115 15 36 6 86 13 112 17 67 8 76 23 39 65 -20 24 -61 47 -133 78 -151 64
-173 80 -193 140 -14 43 -20 50 -43 50 -15 0 -40 -7 -57 -14z"/>
<path d="M23420 5985 c-221 -52 -375 -156 -484 -325 -60 -93 -80 -141 -110
-260 -61 -249 -53 -476 26 -704 42 -123 133 -266 203 -321 21 -17 50 -40 64
-51 49 -40 206 -108 301 -131 79 -18 115 -22 215 -18 180 6 296 32 405 91 63
35 171 120 198 156 7 9 18 23 25 30 63 67 90 118 137 260 65 195 79 349 51
539 -63 429 -248 644 -634 737 -63 16 -327 13 -397 -3z m337 -326 c83 -34 132
-62 162 -91 80 -79 150 -218 167 -333 27 -190 -4 -389 -80 -520 -75 -127 -207
-201 -377 -210 -90 -5 -210 36 -291 99 -39 30 -112 141 -136 207 -60 162 -61
388 -3 551 49 140 196 286 289 289 15 0 36 4 47 9 30 13 190 12 222 -1z"/>
<path d="M20718 5964 c-3 -5 -5 -400 -4 -879 l1 -870 174 -3 c96 -1 179 2 184
7 5 5 11 136 14 292 3 156 9 288 14 294 5 5 51 11 103 13 l94 4 17 -32 c18
-36 131 -211 236 -366 37 -56 79 -121 92 -145 45 -79 58 -84 220 -84 194 0
247 5 247 23 0 7 -51 89 -113 180 -259 380 -288 427 -280 450 3 6 13 12 24 12
51 0 175 104 233 195 100 155 121 336 63 540 -35 125 -144 258 -252 310 -109
51 -155 56 -626 62 -253 3 -438 2 -441 -3z m836 -344 c90 -44 99 -54 135 -143
22 -56 9 -167 -29 -237 -16 -30 -89 -72 -147 -86 -37 -9 -122 -14 -235 -14
-169 0 -178 1 -188 21 -16 29 -15 456 1 475 9 11 51 14 206 14 l195 0 62 -30z"/>
<path d="M29432 5928 c-10 -24 -24 -63 -32 -88 -7 -25 -17 -49 -22 -54 -4 -6
-8 -20 -8 -32 0 -13 -4 -25 -9 -28 -5 -3 -11 -16 -14 -28 -2 -13 -19 -61 -36
-108 -30 -79 -59 -160 -111 -305 -12 -33 -25 -69 -30 -80 -5 -11 -18 -49 -30
-85 -12 -36 -25 -74 -30 -85 -4 -11 -13 -36 -20 -55 -7 -19 -16 -44 -20 -55
-16 -40 -50 -134 -105 -290 -31 -88 -63 -178 -72 -200 -26 -69 -63 -189 -63
-207 0 -17 15 -18 190 -18 l189 0 10 33 c5 17 20 64 34 102 13 39 30 90 37
115 7 25 14 51 16 58 3 9 86 12 373 12 l371 0 6 -27 c3 -16 12 -46 21 -68 8
-22 22 -60 30 -85 8 -25 24 -66 36 -92 l21 -48 188 0 c122 0 188 4 188 10 0 6
-9 36 -21 68 -11 31 -27 77 -35 102 -8 25 -19 54 -24 65 -5 11 -22 58 -38 105
-56 161 -103 295 -112 315 -5 11 -14 38 -21 60 -7 22 -17 44 -21 50 -4 5 -8
16 -8 26 0 14 -20 71 -51 144 -4 11 -26 72 -48 135 -81 235 -112 326 -121 345
-4 11 -13 36 -20 55 -7 19 -16 44 -20 55 -16 39 -42 110 -57 155 -8 25 -20 51
-25 58 -8 9 -68 12 -240 12 l-229 0 -17 -42z m292 -445 c13 -38 39 -113 57
-168 17 -55 35 -109 39 -120 33 -86 99 -308 95 -316 -8 -12 -462 -12 -470 0
-5 10 56 210 75 243 6 10 10 25 10 33 0 8 4 23 9 33 5 9 15 37 22 62 7 25 15
50 19 55 3 6 12 28 19 50 27 85 66 180 76 187 19 14 23 8 49 -59z"/>
<path d="M26681 5893 c-13 -3 -42 -16 -63 -31 -135 -89 -87 -311 74 -340 129
-24 241 72 232 198 -5 61 -15 83 -63 128 -53 50 -95 61 -180 45z m104 -128
c33 -32 33 -75 -1 -109 -35 -34 -68 -33 -105 3 -37 37 -37 61 0 100 36 38 73
40 106 6z"/>
<path d="M26594 5444 c-15 -33 -46 -110 -70 -173 -24 -62 -51 -125 -60 -138
-8 -14 -41 -36 -72 -49 -92 -40 -144 -68 -148 -79 -4 -11 26 -90 82 -213 13
-29 24 -55 24 -57 0 -2 14 -34 30 -70 17 -36 30 -68 30 -70 0 -3 16 -39 35
-81 19 -41 35 -77 35 -79 0 -3 11 -29 25 -60 49 -109 72 -161 84 -195 13 -36
46 -111 62 -142 5 -10 9 -22 9 -27 0 -16 63 -151 71 -151 4 0 14 17 24 38 9
20 28 59 41 86 13 28 24 53 24 58 0 4 11 31 24 60 49 109 95 216 131 303 20
50 44 106 52 125 9 19 22 51 30 70 8 19 23 53 34 75 109 238 115 252 102 271
-5 6 -42 28 -83 49 -158 79 -169 97 -230 365 -24 106 -39 134 -64 124 -35 -13
-41 -45 -41 -204 0 -85 1 -186 3 -223 3 -61 6 -68 22 -64 24 6 28 -7 18 -52
-4 -20 -12 -76 -19 -126 -6 -49 -13 -103 -15 -120 -2 -16 -11 -79 -19 -140
-24 -177 -36 -189 -54 -57 -6 48 -16 116 -21 152 -5 36 -15 101 -21 145 -6 44
-12 87 -14 95 -1 8 -6 39 -10 69 -8 60 -14 56 63 35 21 -6 22 -4 22 57 -1 95
-33 325 -53 387 -7 19 -22 41 -34 49 -22 15 -23 13 -49 -43z"/>
</g>
</svg>
