<?xml version="1.0" standalone="no"?>
<!DOCTYPE svg PUBLIC "-//W3C//DTD SVG 20010904//EN"
 "http://www.w3.org/TR/2001/REC-SVG-20010904/DTD/svg10.dtd">
<svg version="1.0" xmlns="http://www.w3.org/2000/svg"
 width="5120.000000pt" height="1067.000000pt" viewBox="0 0 5120.000000 1067.000000"
 preserveAspectRatio="xMidYMid meet">

<g transform="translate(0.000000,1067.000000) scale(0.100000,-0.100000)"
fill="#000000" stroke="none">
<path d="M28544 10170 c-20 -8 -54 -65 -54 -92 0 -7 -9 -26 -20 -43 -11 -16
-25 -48 -31 -70 -6 -22 -17 -47 -24 -55 -7 -8 -19 -35 -25 -60 -7 -25 -21 -57
-31 -72 -11 -14 -22 -41 -26 -60 -3 -18 -14 -45 -24 -59 -10 -14 -21 -38 -25
-55 -4 -16 -17 -47 -30 -70 -13 -22 -24 -48 -24 -58 0 -9 -13 -42 -30 -73 -16
-31 -30 -64 -30 -73 0 -10 -9 -29 -20 -43 -11 -14 -23 -40 -27 -59 -3 -18 -16
-51 -28 -73 -13 -22 -26 -54 -30 -72 -3 -18 -15 -43 -25 -55 -10 -13 -23 -44
-30 -68 -7 -25 -18 -52 -25 -60 -7 -8 -15 -28 -19 -45 -8 -31 -51 -130 -92
-206 -13 -26 -24 -56 -24 -67 0 -10 -9 -31 -20 -44 -10 -14 -23 -44 -28 -66
-5 -22 -19 -53 -31 -68 -11 -15 -21 -35 -21 -46 0 -10 -13 -44 -30 -75 -16
-31 -30 -64 -30 -73 0 -10 -8 -28 -18 -41 -10 -13 -24 -42 -30 -65 -7 -22 -21
-51 -32 -64 -11 -13 -20 -32 -20 -44 -1 -12 -14 -46 -30 -76 -17 -30 -30 -62
-30 -70 0 -8 -12 -33 -25 -55 -14 -22 -25 -49 -25 -59 0 -11 -11 -38 -24 -60
-13 -23 -26 -56 -29 -74 -4 -19 -16 -46 -27 -61 -10 -16 -22 -48 -26 -72 -4
-24 -18 -64 -31 -88 -29 -55 -31 -107 -4 -116 10 -3 26 -14 36 -25 10 -11 25
-20 34 -20 9 0 36 -14 61 -30 25 -16 52 -30 61 -30 9 0 28 -9 43 -21 14 -11
43 -25 63 -31 21 -6 48 -19 62 -29 13 -11 32 -19 43 -19 11 0 28 -4 38 -10 20
-11 55 -94 71 -170 5 -25 21 -68 34 -95 14 -27 25 -61 25 -75 0 -15 9 -39 20
-52 10 -14 24 -47 30 -74 6 -27 19 -62 29 -79 10 -16 22 -48 26 -70 4 -21 15
-51 26 -66 10 -15 21 -44 25 -65 3 -22 16 -55 29 -74 12 -19 26 -48 30 -64 3
-17 15 -42 26 -57 10 -15 19 -34 19 -42 0 -45 84 -43 149 3 31 23 39 36 45 72
4 23 15 70 25 103 10 33 22 111 26 174 4 63 16 144 26 180 18 64 23 100 34
266 3 44 8 94 10 110 15 90 22 168 24 241 3 96 2 96 -96 89 -70 -4 -90 6 -97
50 -4 24 12 123 27 170 8 22 17 105 22 203 3 56 10 114 15 127 5 14 7 25 5 25
-2 0 0 12 6 26 12 33 16 65 24 184 9 133 15 179 35 245 13 47 19 94 21 170 1
46 10 92 26 135 14 36 27 76 29 90 3 14 13 33 21 43 14 15 19 15 30 4 14 -14
19 -45 28 -182 3 -49 12 -112 21 -140 8 -27 21 -122 29 -210 8 -88 19 -178 25
-200 17 -62 20 -83 26 -185 3 -52 14 -129 24 -170 11 -41 22 -97 24 -125 3
-27 8 -78 11 -112 3 -35 11 -77 17 -94 15 -44 -8 -65 -70 -62 -83 4 -73 83
-86 -677 -1 -90 1 -183 5 -205 4 -22 10 -69 13 -105 10 -102 17 -164 22 -182
3 -9 29 -33 58 -53 40 -27 65 -37 95 -38 52 -1 67 18 76 98 4 33 15 74 25 92
15 26 37 116 30 125 -1 2 9 26 23 53 13 28 27 69 31 92 3 23 15 57 25 75 11
18 22 45 25 61 8 43 17 71 31 87 7 8 18 31 24 51 7 20 20 44 30 53 11 10 22
32 25 50 4 18 15 41 26 51 11 10 20 24 20 31 0 7 21 32 47 56 25 23 55 52 67
63 26 26 79 59 136 85 25 12 52 27 60 34 8 8 33 17 55 21 22 3 55 16 73 27 18
11 47 22 65 25 40 6 67 29 62 54 -14 71 -38 145 -54 165 -11 14 -23 39 -26 56
-4 17 -18 51 -31 76 -13 25 -24 53 -24 62 0 10 -9 29 -21 44 -11 14 -25 43
-31 63 -6 21 -18 48 -28 60 -10 13 -21 40 -25 60 -4 20 -15 48 -25 60 -10 13
-22 38 -26 56 -3 18 -17 50 -29 72 -13 22 -26 54 -30 72 -3 17 -13 37 -20 43
-8 6 -21 35 -29 65 -9 29 -22 58 -30 64 -7 6 -19 33 -26 59 -6 26 -17 54 -25
62 -7 8 -19 35 -25 60 -7 25 -20 56 -30 70 -9 14 -20 40 -23 58 -4 19 -15 46
-26 60 -10 15 -24 47 -31 72 -6 25 -18 52 -25 60 -7 8 -18 35 -25 59 -6 24
-20 56 -30 70 -10 14 -21 42 -24 62 -4 21 -15 48 -26 62 -11 13 -23 43 -28 65
-5 22 -18 53 -29 69 -11 15 -23 43 -26 61 -4 19 -16 45 -27 59 -11 14 -20 33
-20 43 0 9 -11 38 -25 63 -13 25 -29 65 -35 89 -7 23 -20 53 -31 66 -10 14
-19 36 -19 49 0 13 -11 44 -26 68 -14 24 -27 56 -30 72 -3 15 -13 40 -24 54
-10 15 -22 40 -26 55 -4 16 -17 49 -30 74 -13 25 -24 50 -24 57 0 7 -15 41
-32 76 -29 56 -36 63 -54 57z"/>
<path d="M13765 8470 c-16 -4 -70 -37 -119 -74 -49 -37 -101 -73 -117 -82 -15
-8 -39 -24 -52 -37 -33 -30 -88 -70 -160 -115 -20 -13 -37 -28 -37 -32 0 -5
-21 -22 -47 -39 -27 -17 -57 -36 -67 -43 -11 -7 -30 -23 -43 -35 -12 -12 -32
-24 -43 -28 -11 -3 -20 -10 -20 -15 0 -5 -19 -19 -42 -31 -24 -12 -45 -25 -48
-28 -3 -4 -21 -18 -40 -31 -19 -13 -37 -27 -40 -30 -3 -3 -18 -14 -33 -23 -32
-21 -43 -30 -108 -90 -26 -23 -50 -53 -54 -67 -4 -14 -16 -36 -26 -49 -15 -18
-19 -41 -19 -101 l0 -77 59 -59 c64 -63 76 -74 191 -161 41 -31 98 -76 125
-101 50 -45 104 -84 155 -113 15 -8 42 -26 58 -40 17 -13 47 -35 67 -49 20
-14 67 -50 105 -80 38 -30 91 -71 117 -90 26 -19 71 -53 98 -75 98 -81 133
-95 233 -95 l90 0 56 53 55 53 2 75 c3 134 2 141 -36 179 -19 19 -47 45 -62
57 -15 12 -48 38 -71 58 -24 19 -47 35 -51 35 -3 0 -31 23 -61 50 -30 28 -61
50 -68 50 -17 0 -41 57 -35 81 5 18 95 19 3182 20 1747 1 3212 3 3256 4 361
11 1450 18 2817 19 l1627 1 31 32 c82 83 110 177 77 253 -28 66 -80 114 -138
129 -30 8 -67 20 -83 28 -30 16 183 15 -8581 28 -1182 2 -2153 4 -2157 4 -30
4 15 104 53 116 10 3 38 25 62 48 24 23 65 58 92 77 70 50 134 120 144 157 5
18 7 63 5 100 -4 66 -6 69 -52 112 -26 24 -56 50 -67 57 -24 16 -135 24 -180
14z"/>
<path d="M37374 8465 c-16 -7 -50 -35 -76 -64 -44 -48 -47 -55 -52 -117 -2
-37 0 -78 5 -93 20 -52 218 -232 310 -281 15 -8 39 -33 54 -54 24 -35 25 -40
11 -55 -19 -18 278 -16 -3170 -25 -1325 -4 -2416 -11 -2425 -15 -9 -5 -49 -17
-89 -26 -62 -15 -77 -23 -105 -57 -17 -21 -35 -50 -39 -64 -9 -33 -2 -173 10
-205 13 -32 79 -89 105 -90 12 -1 420 -3 907 -4 487 -2 962 -7 1055 -11 94 -4
978 -9 1965 -11 1480 -3 1797 -6 1804 -17 16 -23 -3 -65 -37 -82 -17 -9 -54
-35 -82 -58 -27 -23 -63 -50 -80 -61 -62 -39 -132 -106 -170 -163 -47 -71 -42
-192 10 -254 56 -67 88 -82 173 -81 65 1 86 6 134 32 32 16 67 39 80 50 12 12
27 21 34 21 12 0 71 44 167 125 39 33 125 95 131 95 4 0 31 19 59 43 29 24 69
54 90 66 20 12 37 27 37 32 0 5 5 9 11 9 5 0 41 26 78 58 37 31 103 84 147
117 43 33 114 95 157 137 l78 77 0 98 -1 98 -57 56 c-32 31 -76 67 -98 81 -22
14 -46 33 -54 42 -7 9 -19 16 -27 16 -7 0 -19 8 -26 19 -7 10 -26 26 -43 35
-42 23 -88 58 -150 111 -29 25 -56 45 -60 45 -4 0 -35 24 -69 53 -90 78 -189
158 -231 187 -44 31 -114 84 -136 105 -9 9 -43 32 -75 51 -54 33 -66 37 -145
39 -52 2 -97 -2 -115 -10z"/>
<path d="M30024 6683 c-25 -27 -30 -40 -38 -108 -6 -44 -59 -199 -75 -219 -5
-6 -23 -13 -40 -14 -34 -3 -54 -11 -126 -52 -27 -16 -96 -52 -153 -81 -56 -28
-105 -55 -107 -60 -3 -4 -22 -13 -41 -19 -20 -7 -52 -23 -72 -36 -19 -13 -43
-24 -52 -24 -10 0 -24 -7 -31 -16 -7 -9 -32 -26 -54 -38 -87 -45 -134 -81
-156 -120 -21 -38 -21 -40 -4 -53 11 -7 44 -13 74 -14 31 0 70 -3 86 -5 17 -2
44 -6 60 -9 17 -2 57 -10 90 -18 33 -8 114 -18 180 -21 159 -9 167 -10 265
-34 47 -11 130 -23 185 -25 55 -3 120 -12 144 -21 42 -16 74 -19 261 -31 100
-6 100 -6 165 -27 28 -9 95 -19 150 -23 136 -8 164 -12 205 -24 19 -6 69 -14
110 -17 41 -3 91 -7 110 -9 19 -2 76 -4 126 -4 72 -1 96 -5 113 -18 l21 -18
-30 -44 c-23 -34 -41 -48 -80 -61 -28 -9 -50 -15 -50 -12 0 2 -6 0 -12 -6 -14
-10 -81 -19 -208 -28 -41 -3 -88 -9 -105 -14 -16 -5 -52 -11 -80 -15 -27 -4
-61 -8 -75 -11 -14 -2 -97 -8 -185 -13 -88 -5 -171 -12 -185 -16 -14 -3 -35
-8 -47 -11 -13 -2 -35 -7 -50 -10 -16 -3 -64 -7 -108 -10 -77 -5 -152 -16
-205 -30 -14 -4 -88 -15 -165 -24 -77 -10 -155 -23 -172 -28 -18 -6 -33 -8
-33 -5 0 3 -6 1 -13 -5 -7 -6 -62 -14 -122 -17 -110 -7 -135 -11 -231 -37 -28
-8 -77 -15 -110 -17 -32 -1 -64 -7 -70 -12 -19 -16 -4 -50 53 -117 29 -35 53
-68 53 -73 0 -16 122 -129 163 -150 20 -11 37 -23 37 -28 0 -4 17 -16 38 -25
20 -9 64 -32 97 -51 33 -19 71 -39 85 -45 37 -16 40 -18 96 -53 28 -18 65 -41
82 -52 18 -11 35 -29 38 -40 4 -11 15 -29 25 -41 11 -11 26 -47 34 -79 9 -32
20 -64 25 -70 5 -6 12 -29 16 -51 3 -21 8 -46 9 -54 2 -8 4 -21 4 -27 2 -25
20 -13 30 20 12 34 50 76 86 95 11 5 46 15 77 21 31 7 62 19 68 27 7 7 34 20
60 28 26 8 65 23 88 35 23 12 52 21 65 21 13 0 34 9 47 20 13 11 42 25 64 31
23 6 48 17 57 26 10 8 40 20 68 28 28 7 62 22 77 34 15 12 36 21 47 21 11 0
36 10 56 22 20 13 38 23 41 24 32 3 71 18 80 30 7 7 31 19 54 25 22 6 52 19
67 29 14 10 38 22 55 26 16 4 47 17 69 29 22 13 55 25 73 29 19 3 46 14 60 24
15 11 40 22 56 26 17 4 41 16 55 26 15 10 46 23 71 30 25 6 52 18 61 26 8 7
31 17 50 20 19 4 52 17 75 30 22 13 48 24 56 24 8 0 40 13 71 30 31 16 66 30
78 30 11 0 33 9 48 19 15 11 40 23 57 27 16 3 47 17 69 29 22 13 57 26 78 30
20 4 48 16 61 26 13 10 42 23 65 28 23 5 50 16 60 25 10 9 40 23 68 31 28 8
56 21 62 29 7 8 28 17 49 20 20 4 60 17 87 30 28 14 61 30 75 36 14 6 52 27
85 45 33 19 72 39 87 45 31 13 45 45 28 65 -6 7 -29 16 -50 20 -22 4 -51 16
-65 27 -15 11 -45 25 -68 30 -23 5 -49 16 -59 24 -9 9 -36 20 -59 25 -23 6
-54 18 -68 28 -14 10 -42 22 -61 26 -19 4 -51 18 -70 31 -19 13 -46 24 -61 24
-14 0 -46 11 -70 23 -24 13 -57 27 -73 31 -17 4 -41 16 -56 26 -14 10 -42 21
-63 25 -20 4 -48 16 -61 26 -14 11 -39 22 -58 26 -18 3 -51 16 -73 28 -22 13
-54 26 -72 30 -17 3 -37 13 -44 21 -6 7 -34 21 -62 29 -28 8 -57 21 -66 29 -9
8 -36 19 -61 26 -24 7 -54 18 -65 26 -11 8 -38 19 -60 25 -22 6 -52 20 -67 30
-14 11 -41 22 -60 25 -18 4 -40 13 -50 21 -9 8 -38 21 -64 29 -26 8 -59 21
-72 30 -13 9 -45 22 -72 30 -26 8 -53 20 -59 28 -7 8 -30 17 -51 21 -22 4 -50
15 -62 25 -13 9 -39 21 -58 25 -19 4 -53 18 -75 30 -22 12 -53 26 -69 29 -17
4 -41 16 -55 26 -15 10 -44 23 -66 29 -22 6 -49 17 -60 25 -11 8 -41 19 -65
26 -25 7 -56 20 -70 30 -14 9 -40 20 -58 23 -19 4 -46 16 -62 27 -15 11 -35
20 -43 20 -8 0 -41 14 -72 30 -31 17 -61 30 -66 30 -6 0 -21 -12 -35 -27z"/>
<path d="M26899 6659 c-32 -3 -69 -15 -85 -26 -16 -11 -40 -24 -54 -27 -14 -4
-45 -18 -70 -31 -25 -12 -59 -26 -76 -29 -18 -4 -40 -16 -50 -27 -9 -10 -22
-19 -28 -19 -6 0 -38 -14 -71 -30 -33 -16 -70 -30 -81 -30 -12 0 -32 -9 -46
-19 -13 -11 -44 -24 -68 -31 -25 -7 -56 -20 -70 -30 -14 -10 -42 -21 -63 -25
-20 -4 -47 -15 -60 -25 -12 -9 -38 -21 -57 -25 -19 -4 -51 -17 -70 -29 -19
-13 -51 -26 -71 -30 -21 -3 -48 -15 -61 -25 -13 -11 -41 -22 -61 -26 -20 -4
-46 -15 -57 -25 -11 -10 -42 -23 -68 -30 -26 -6 -54 -17 -62 -25 -8 -7 -35
-18 -59 -25 -24 -6 -56 -20 -70 -30 -14 -11 -39 -22 -56 -24 -16 -3 -41 -14
-55 -24 -14 -11 -41 -23 -60 -27 -19 -4 -51 -17 -70 -30 -19 -12 -50 -25 -69
-29 -19 -3 -42 -13 -52 -22 -9 -8 -40 -21 -68 -29 -28 -7 -57 -20 -66 -28 -8
-9 -29 -19 -47 -22 -18 -4 -51 -18 -73 -30 -22 -13 -54 -26 -72 -30 -17 -3
-41 -15 -53 -25 -12 -10 -39 -21 -60 -25 -21 -4 -44 -13 -51 -21 -6 -8 -32
-20 -58 -28 -26 -7 -62 -23 -81 -35 -19 -11 -41 -21 -49 -21 -8 0 -37 -11 -65
-24 -28 -13 -64 -29 -79 -35 -23 -9 -28 -16 -25 -38 2 -23 11 -29 47 -40 24
-7 51 -19 61 -28 9 -8 32 -18 51 -21 19 -4 46 -15 61 -26 15 -10 42 -24 60
-30 18 -6 44 -19 58 -28 14 -10 43 -23 65 -29 22 -6 49 -17 60 -24 11 -8 36
-18 55 -22 19 -4 53 -18 75 -31 22 -12 56 -26 75 -29 19 -3 44 -15 56 -26 11
-10 29 -19 40 -19 10 0 46 -14 79 -30 33 -16 66 -30 74 -30 8 0 33 -11 55 -24
23 -13 55 -27 73 -30 17 -4 37 -14 43 -21 6 -8 35 -21 65 -29 29 -9 58 -22 64
-30 7 -8 27 -18 44 -22 18 -3 50 -17 72 -29 22 -12 53 -26 69 -29 17 -4 41
-16 55 -26 15 -10 45 -23 67 -29 23 -6 47 -18 54 -26 7 -8 28 -17 49 -21 20
-3 47 -14 61 -23 14 -10 43 -24 65 -31 22 -7 52 -21 67 -31 14 -11 33 -19 41
-19 8 0 41 -13 72 -30 31 -16 67 -30 79 -30 11 0 39 -12 61 -25 22 -14 46 -25
54 -25 8 0 41 -13 75 -29 152 -72 174 -81 191 -81 11 0 35 -11 54 -24 20 -13
55 -27 79 -30 24 -3 56 -14 71 -25 15 -11 53 -22 87 -26 57 -7 60 -6 81 23 12
17 25 45 28 64 3 18 17 49 30 69 14 19 25 40 25 45 0 24 120 112 215 158 62
30 153 66 166 66 8 0 35 11 61 25 26 14 64 28 85 31 21 3 54 16 74 30 19 13
44 24 54 24 28 0 116 65 159 116 41 49 58 113 37 138 -16 19 -82 34 -186 41
-125 9 -124 9 -180 27 -31 10 -106 19 -200 23 -82 4 -152 8 -156 10 -3 2 -16
6 -30 9 -13 3 -46 12 -74 20 -27 7 -95 16 -151 19 -56 4 -114 11 -130 17 -16
6 -30 11 -31 11 -3 -1 -5 -1 -20 3 -20 6 -126 16 -203 20 -91 6 -118 10 -195
31 -27 7 -106 16 -175 20 -69 3 -138 8 -155 10 -57 8 -100 17 -115 25 -15 8
-34 11 -150 26 -65 8 -104 26 -125 58 -19 28 -10 55 19 61 11 2 95 6 186 9
124 3 183 10 238 25 40 11 112 23 160 26 48 4 123 13 167 20 72 13 130 21 205
30 14 2 57 4 95 6 39 1 96 10 129 20 59 18 90 23 221 35 39 3 81 7 95 10 14 2
50 6 80 9 30 3 63 8 72 11 29 9 51 12 148 19 52 3 116 13 141 21 62 20 82 23
169 30 90 6 129 18 158 45 21 19 21 21 6 52 -19 36 -123 146 -139 147 -6 0
-30 11 -55 24 -25 13 -59 27 -76 30 -18 4 -40 16 -49 26 -9 10 -36 22 -58 25
-23 4 -53 15 -67 25 -14 10 -45 23 -70 30 -25 6 -52 18 -60 26 -9 7 -36 20
-60 29 -24 9 -51 21 -60 29 -8 7 -28 18 -45 25 -54 21 -110 82 -129 141 -10
30 -23 62 -30 70 -7 8 -13 31 -15 50 -5 60 -28 71 -132 59z"/>
<path d="M20270 6229 c-58 -4 -125 -12 -150 -19 -25 -6 -87 -19 -137 -29 -51
-10 -99 -23 -107 -30 -7 -6 -43 -18 -79 -25 -37 -8 -79 -23 -94 -34 -15 -10
-46 -22 -68 -26 -21 -4 -51 -16 -65 -26 -14 -9 -39 -21 -57 -24 -17 -4 -37
-14 -45 -23 -7 -9 -31 -24 -53 -35 -48 -22 -101 -55 -139 -85 -16 -13 -32 -23
-36 -23 -18 0 -227 -201 -297 -285 -78 -94 -90 -110 -107 -143 -9 -18 -23 -35
-31 -38 -7 -3 -18 -18 -24 -32 -6 -15 -27 -54 -46 -87 -19 -33 -44 -80 -55
-105 -12 -25 -27 -52 -34 -60 -7 -8 -18 -34 -25 -58 -7 -24 -21 -58 -32 -75
-10 -18 -19 -45 -19 -62 0 -16 -11 -53 -24 -81 -13 -27 -26 -75 -29 -106 -4
-31 -15 -78 -26 -105 -10 -26 -22 -78 -25 -113 -4 -36 -9 -87 -12 -115 -2 -27
-7 -58 -10 -67 -25 -81 -29 -152 -29 -463 0 -267 2 -318 17 -365 10 -30 20
-75 23 -100 12 -112 18 -146 25 -155 13 -17 29 -78 36 -134 4 -30 15 -68 25
-86 10 -17 23 -55 29 -85 6 -29 17 -61 24 -69 8 -9 20 -38 27 -66 6 -27 20
-59 30 -70 10 -12 21 -35 25 -52 3 -16 16 -42 29 -57 13 -15 26 -42 29 -60 4
-18 15 -41 26 -51 11 -10 20 -24 20 -30 0 -7 12 -28 28 -48 50 -67 67 -89 82
-112 8 -12 24 -35 35 -50 26 -37 193 -202 225 -223 35 -23 114 -83 120 -91 14
-18 131 -89 190 -116 19 -8 42 -20 50 -25 8 -6 31 -17 50 -26 19 -8 58 -26 85
-39 28 -14 59 -25 69 -25 11 0 33 -11 50 -24 17 -13 51 -26 76 -29 66 -9 85
-14 117 -30 15 -8 55 -18 88 -22 72 -8 73 -9 155 -32 56 -15 104 -18 335 -18
230 0 278 3 325 18 53 17 77 21 202 32 31 3 79 13 106 24 26 11 70 22 98 26
27 4 72 18 100 31 28 13 60 24 71 24 11 0 36 11 55 24 19 13 51 26 70 30 20 4
41 12 47 20 6 7 29 21 51 31 22 10 40 22 40 27 0 5 15 16 33 24 34 16 85 50
129 87 15 12 44 36 64 52 48 38 230 220 266 265 15 19 40 51 56 70 29 37 60
80 78 112 6 10 20 29 31 41 11 12 28 43 37 69 10 27 22 48 26 48 5 0 12 17 16
38 4 20 17 55 30 77 12 22 25 56 28 77 3 20 14 51 25 70 11 18 23 51 27 73 4
22 15 56 24 75 17 34 24 61 34 130 3 19 14 60 24 90 11 30 22 96 26 146 4 50
9 101 12 115 3 13 7 35 10 49 3 14 9 43 14 64 13 59 13 495 -1 552 -10 47 -13
61 -24 122 -3 15 -8 70 -11 122 -4 57 -16 123 -30 167 -13 39 -24 89 -24 110
0 21 -11 61 -24 90 -14 29 -28 73 -31 98 -4 25 -15 56 -25 68 -10 13 -22 41
-26 63 -4 21 -15 50 -24 64 -9 14 -23 43 -30 65 -7 22 -20 51 -29 65 -9 14
-24 41 -34 60 -32 64 -107 180 -138 214 -11 11 -19 24 -19 30 0 6 -9 19 -20
31 -11 11 -69 70 -129 131 -100 102 -260 234 -284 234 -5 0 -22 11 -39 25 -16
14 -36 25 -43 25 -7 0 -26 11 -42 24 -16 14 -43 28 -59 32 -16 3 -45 15 -64
25 -19 10 -53 23 -75 30 -22 6 -53 19 -70 29 -16 10 -52 21 -80 25 -27 3 -64
14 -81 24 -17 11 -56 22 -85 27 -95 13 -127 20 -162 33 -13 5 -48 12 -78 16
-80 9 -518 12 -639 4z m590 -850 c25 -11 67 -25 93 -30 27 -5 60 -18 74 -29
14 -11 34 -20 44 -20 9 0 30 -11 46 -24 15 -13 44 -28 63 -35 20 -6 71 -44
115 -86 44 -41 83 -75 88 -75 4 0 7 -5 7 -11 0 -6 15 -29 33 -50 53 -63 74
-93 82 -119 4 -14 15 -34 24 -45 22 -25 81 -141 81 -158 0 -7 11 -28 24 -47
13 -19 27 -54 30 -76 4 -23 18 -63 32 -89 18 -36 24 -65 24 -109 0 -34 10 -95
21 -136 19 -65 22 -105 25 -295 2 -227 -5 -333 -30 -420 -8 -27 -17 -79 -20
-115 -3 -36 -17 -92 -31 -125 -13 -33 -25 -70 -25 -81 0 -12 -9 -32 -19 -46
-11 -13 -24 -42 -30 -65 -6 -22 -18 -46 -26 -53 -8 -7 -19 -29 -25 -49 -5 -20
-21 -49 -35 -65 -13 -16 -27 -37 -30 -47 -4 -11 -10 -19 -14 -19 -4 0 -22 -21
-39 -47 -57 -86 -171 -195 -224 -215 -14 -5 -29 -15 -31 -23 -3 -7 -23 -19
-44 -26 -21 -6 -49 -21 -63 -31 -14 -10 -44 -21 -65 -24 -22 -3 -56 -14 -75
-24 -19 -9 -71 -23 -114 -29 -44 -6 -84 -15 -90 -20 -44 -33 -287 -35 -387 -3
-35 12 -82 22 -104 23 -22 1 -54 10 -71 19 -17 10 -54 25 -82 34 -29 10 -52
21 -52 26 0 5 -17 14 -37 20 -21 7 -47 20 -58 30 -11 10 -31 23 -44 30 -34 18
-132 94 -162 127 -43 46 -129 165 -129 178 0 7 -7 18 -15 25 -16 13 -95 170
-95 189 0 7 -9 24 -20 39 -11 15 -24 50 -29 78 -6 28 -19 69 -30 90 -10 22
-22 72 -26 114 -3 41 -13 95 -21 120 -36 107 -38 589 -3 684 10 27 21 88 25
135 5 62 13 99 30 131 13 25 24 56 24 70 0 14 11 48 24 75 12 28 28 67 35 88
7 20 16 37 21 37 4 0 13 14 20 31 7 17 18 36 24 42 7 7 33 44 59 82 70 105
229 265 312 312 101 58 193 95 245 100 30 2 76 11 101 19 82 26 131 31 329 32
176 1 199 -1 240 -19z"/>
<path d="M13154 6152 c-10 -2 -25 -11 -31 -20 -10 -12 -13 -474 -13 -2233 0
-1920 2 -2218 14 -2229 23 -18 875 -16 894 3 10 10 15 53 18 153 3 77 6 173 9
214 2 41 7 309 11 595 7 570 6 560 66 569 66 10 463 16 477 7 15 -9 34 -42 67
-111 9 -19 25 -46 36 -60 31 -40 78 -114 78 -124 0 -4 14 -24 30 -43 17 -18
30 -39 30 -44 0 -6 11 -24 25 -41 14 -16 25 -35 25 -42 0 -7 11 -22 25 -34 14
-12 25 -28 25 -36 0 -12 15 -34 76 -111 8 -11 24 -36 34 -56 10 -19 26 -41 34
-48 9 -8 16 -19 16 -26 0 -8 11 -27 25 -43 14 -17 25 -34 25 -40 0 -9 34 -57
84 -118 14 -18 26 -36 26 -41 0 -9 31 -52 68 -98 5 -6 17 -24 27 -40 43 -70
63 -102 87 -140 14 -22 29 -51 33 -65 4 -14 18 -38 31 -53 13 -16 24 -34 24
-41 0 -18 70 -80 115 -100 75 -34 186 -44 425 -40 224 4 377 11 415 18 11 2
57 7 102 11 103 9 115 31 52 99 -11 11 -19 24 -19 29 0 5 -10 22 -22 37 -13
15 -36 52 -53 80 -16 29 -38 61 -48 72 -10 10 -26 31 -35 47 -33 54 -61 96
-82 126 -11 17 -39 57 -60 90 -22 33 -53 78 -69 100 -17 22 -38 53 -47 69 -9
16 -27 40 -40 53 -13 13 -24 30 -24 37 0 8 -7 19 -16 27 -8 7 -24 29 -35 48
-11 20 -35 56 -54 81 -19 25 -44 61 -55 80 -11 19 -36 55 -55 80 -33 43 -55
82 -55 99 0 4 -11 18 -25 31 -14 13 -25 29 -25 36 0 6 -7 18 -17 25 -9 8 -25
33 -35 57 -10 23 -23 42 -27 42 -5 0 -16 17 -24 39 -9 21 -23 46 -33 56 -10 9
-19 38 -22 66 -4 44 -2 49 19 58 13 5 44 11 69 13 26 3 61 16 84 31 21 15 45
27 53 27 9 0 27 10 42 23 16 12 45 36 65 52 68 55 211 201 275 280 27 33 81
117 81 125 0 5 11 21 24 37 13 15 28 45 34 65 6 21 17 45 26 53 8 9 20 35 26
58 6 23 19 60 30 82 10 22 21 56 24 75 15 97 19 115 33 153 10 29 17 93 20
202 5 151 -2 224 -31 355 -9 37 -14 69 -21 135 -4 33 -15 79 -25 103 -11 24
-22 60 -26 80 -4 20 -18 57 -31 81 -12 24 -23 52 -23 61 0 10 -10 32 -23 51
-12 19 -28 45 -35 59 -48 94 -196 265 -292 338 -19 15 -44 35 -54 45 -11 9
-26 17 -33 17 -7 0 -20 11 -29 24 -8 14 -30 28 -47 32 -18 3 -43 14 -57 24
-14 10 -41 21 -60 25 -19 4 -46 16 -60 26 -15 11 -63 25 -115 34 -50 8 -112
21 -140 29 -33 10 -123 17 -265 21 -214 6 -329 12 -405 20 -46 6 -1612 12
-1641 7z m1988 -829 c26 -13 53 -23 60 -23 34 0 209 -103 268 -157 14 -13 28
-23 33 -23 4 0 14 -15 22 -32 8 -18 23 -46 35 -63 11 -16 20 -39 20 -50 0 -11
10 -40 21 -65 28 -61 33 -89 33 -200 0 -137 -5 -181 -25 -215 -16 -27 -26 -65
-28 -105 -2 -32 -115 -190 -137 -190 -7 0 -19 -8 -26 -18 -18 -25 -145 -92
-175 -92 -13 0 -43 -10 -66 -22 -42 -23 -45 -23 -559 -26 -355 -2 -523 0 -537
8 -11 5 -28 27 -38 48 -17 34 -18 79 -18 597 l0 560 25 37 c14 22 38 42 55 47
17 5 236 9 510 8 476 -2 480 -2 527 -24z"/>
<path d="M35478 6136 c-31 -20 -48 -52 -48 -89 0 -12 -11 -42 -24 -67 -13 -25
-27 -64 -31 -87 -3 -23 -15 -53 -24 -65 -10 -13 -21 -41 -25 -63 -5 -22 -19
-63 -32 -91 -13 -28 -24 -60 -24 -70 0 -11 -11 -39 -24 -64 -13 -25 -26 -63
-30 -85 -4 -22 -14 -50 -22 -63 -9 -13 -22 -48 -30 -77 -7 -30 -23 -71 -34
-92 -11 -21 -20 -47 -20 -59 0 -11 -11 -42 -24 -68 -13 -26 -27 -64 -31 -84
-4 -20 -15 -50 -25 -67 -10 -16 -21 -48 -25 -70 -4 -22 -15 -54 -26 -72 -10
-18 -21 -49 -25 -70 -4 -21 -17 -58 -30 -83 -13 -25 -24 -54 -24 -66 0 -11
-11 -43 -25 -70 -14 -27 -28 -65 -31 -84 -3 -19 -15 -50 -26 -69 -10 -19 -23
-56 -28 -83 -6 -27 -19 -61 -30 -75 -11 -14 -20 -37 -20 -52 0 -14 -11 -48
-23 -76 -13 -27 -29 -72 -36 -100 -7 -27 -19 -57 -27 -66 -7 -8 -18 -38 -23
-66 -6 -27 -19 -65 -29 -84 -11 -19 -23 -51 -26 -72 -4 -21 -15 -52 -25 -70
-10 -18 -24 -53 -30 -79 -6 -27 -20 -63 -31 -80 -11 -18 -20 -44 -20 -58 0
-14 -11 -45 -24 -70 -13 -25 -27 -63 -30 -84 -4 -22 -15 -53 -25 -70 -11 -17
-23 -49 -27 -71 -4 -22 -18 -62 -30 -90 -13 -27 -24 -59 -24 -70 0 -12 -9 -39
-20 -60 -12 -22 -26 -62 -32 -90 -6 -27 -18 -61 -28 -75 -9 -14 -20 -43 -24
-65 -4 -22 -18 -61 -32 -87 -13 -26 -24 -58 -24 -71 0 -13 -11 -45 -24 -70
-14 -25 -27 -62 -31 -83 -3 -21 -14 -53 -25 -72 -11 -18 -23 -52 -26 -75 -4
-23 -15 -53 -25 -67 -14 -21 -27 -64 -34 -110 0 -3 -9 -17 -19 -33 -10 -15
-24 -58 -32 -96 -7 -38 -20 -84 -29 -101 -17 -32 -25 -113 -14 -124 4 -4 212
-7 463 -7 523 0 497 -5 515 83 7 29 18 63 26 74 8 12 20 44 26 71 7 26 23 68
36 92 13 24 23 54 23 66 0 13 11 47 24 76 13 30 27 76 30 102 3 27 14 68 25
90 10 23 22 63 25 88 4 28 15 54 27 65 20 18 58 19 950 19 1059 0 956 10 971
-96 4 -35 15 -73 23 -86 8 -12 22 -48 30 -79 8 -31 22 -67 30 -80 8 -13 18
-40 21 -61 3 -21 16 -63 29 -93 13 -30 26 -71 30 -91 3 -21 12 -42 20 -49 8
-6 21 -35 29 -65 9 -29 23 -58 31 -65 8 -7 15 -18 15 -25 0 -33 24 -35 489
-36 495 0 506 1 477 46 -8 12 -18 40 -22 61 -4 21 -15 55 -25 76 -10 20 -23
58 -29 84 -6 27 -17 55 -25 64 -7 8 -19 38 -25 65 -6 28 -20 66 -29 85 -10 19
-24 57 -30 83 -6 27 -18 59 -25 70 -7 12 -19 45 -25 72 -7 28 -19 60 -27 72
-8 12 -19 46 -25 75 -6 29 -19 64 -29 78 -10 14 -21 45 -25 70 -4 25 -18 63
-31 86 -13 22 -24 52 -24 66 0 14 -11 45 -24 70 -13 25 -27 63 -30 85 -4 22
-18 62 -32 88 -13 27 -24 58 -24 69 0 12 -11 42 -25 68 -14 26 -25 58 -25 71
0 13 -11 44 -23 68 -13 24 -27 64 -31 89 -4 24 -13 52 -21 60 -8 9 -21 43 -28
75 -8 33 -24 76 -36 95 -11 19 -21 47 -21 61 0 14 -11 46 -23 70 -13 24 -27
62 -31 84 -4 22 -17 55 -28 73 -11 18 -23 50 -25 70 -3 20 -16 57 -29 82 -13
25 -24 56 -24 70 0 14 -9 40 -20 58 -11 17 -25 53 -31 80 -6 26 -22 69 -35 96
-13 28 -24 61 -24 75 0 15 -9 41 -21 60 -11 19 -23 44 -25 55 -12 65 -18 84
-34 111 -10 17 -21 48 -25 70 -4 22 -15 54 -25 70 -10 17 -22 48 -26 70 -4 22
-18 62 -30 90 -13 27 -24 59 -24 70 0 11 -11 40 -24 65 -13 25 -27 63 -30 85
-4 22 -16 54 -26 70 -10 17 -23 53 -29 82 -6 28 -20 67 -31 85 -11 18 -20 44
-20 57 0 13 -11 43 -24 65 -13 23 -26 59 -29 82 -4 23 -18 61 -31 85 -13 24
-27 60 -30 80 -4 21 -13 42 -21 49 -8 6 -19 37 -25 68 -7 31 -19 65 -27 74 -8
9 -20 38 -27 65 -9 35 -19 51 -38 61 -20 9 -161 13 -583 15 -532 2 -558 1
-587 -17z m667 -1128 c19 -40 35 -86 35 -102 0 -16 10 -45 22 -64 12 -20 25
-60 29 -90 4 -29 15 -62 24 -72 8 -9 18 -28 20 -41 3 -13 8 -40 12 -59 3 -19
17 -55 30 -79 12 -24 23 -57 23 -73 0 -16 11 -48 23 -71 13 -23 26 -63 29 -88
3 -25 13 -58 24 -74 10 -15 19 -33 20 -39 1 -6 5 -29 9 -51 4 -22 16 -54 26
-72 11 -17 24 -57 29 -89 5 -31 17 -65 26 -75 9 -10 18 -35 21 -56 2 -21 15
-60 28 -88 13 -27 28 -72 34 -100 6 -27 19 -68 31 -90 11 -21 20 -50 20 -63 0
-12 7 -36 15 -52 20 -38 11 -57 -33 -70 -24 -6 -240 -9 -604 -8 -652 3 -609
-3 -588 90 7 29 23 78 36 108 13 30 27 73 30 94 4 22 15 54 25 70 10 17 21 49
25 71 4 22 18 62 30 90 13 27 24 61 24 75 0 14 9 40 20 58 11 18 25 57 31 85
6 29 19 66 29 82 10 17 21 51 24 76 4 25 15 61 25 80 10 19 23 58 30 87 6 29
17 63 26 75 8 12 19 47 26 77 6 30 20 65 29 77 10 13 21 43 25 69 3 25 17 66
31 91 13 25 24 53 24 61 0 8 11 38 24 66 13 28 29 69 35 92 12 44 36 62 83 63
25 1 32 -7 63 -71z"/>
<path d="M28385 5960 c-28 -3 -64 -15 -82 -28 -17 -12 -35 -22 -41 -22 -27 0
-192 -166 -192 -194 0 -12 -11 -42 -25 -68 -22 -42 -25 -59 -25 -152 0 -93 3
-113 31 -181 16 -42 40 -88 52 -103 44 -53 124 -128 162 -150 43 -26 220 -64
257 -56 13 3 37 7 55 9 121 14 126 16 250 99 35 22 63 46 63 52 0 6 9 19 20
29 10 9 27 38 37 64 9 25 26 60 36 78 16 28 18 49 15 155 -2 92 -7 131 -20
157 -10 19 -18 38 -18 44 0 27 -36 79 -73 104 -42 28 -87 72 -87 85 0 12 -89
67 -125 77 -37 10 -202 11 -290 1z m231 -283 c21 -13 50 -38 64 -53 23 -26 25
-37 25 -121 0 -88 -1 -94 -27 -118 -16 -14 -28 -29 -28 -34 0 -17 -99 -71
-129 -71 -45 0 -108 35 -163 91 -47 49 -48 50 -48 115 0 59 3 70 38 118 41 59
77 85 137 102 46 13 76 6 131 -29z"/>
<path d="M28210 4913 c-12 -14 -27 -44 -32 -66 -5 -22 -17 -52 -27 -66 -10
-14 -23 -43 -29 -63 -6 -21 -19 -50 -30 -65 -11 -16 -22 -43 -25 -60 -3 -18
-14 -45 -25 -60 -11 -16 -23 -47 -27 -68 -4 -22 -15 -54 -25 -71 -10 -17 -23
-54 -29 -82 -5 -27 -19 -65 -30 -83 -10 -19 -22 -52 -26 -74 -4 -21 -15 -51
-25 -65 -9 -14 -20 -35 -24 -46 -9 -29 -78 -100 -106 -109 -12 -4 -38 -18 -57
-31 -20 -13 -45 -24 -57 -24 -12 0 -39 -11 -61 -25 -22 -13 -50 -25 -61 -25
-12 0 -33 -9 -47 -20 -14 -11 -45 -27 -68 -35 -24 -9 -50 -22 -59 -29 -8 -8
-25 -17 -37 -20 -38 -12 -44 -28 -33 -86 6 -30 17 -61 25 -70 8 -9 18 -32 22
-50 3 -19 19 -59 35 -88 15 -30 28 -62 28 -72 0 -9 8 -28 19 -41 10 -13 22
-40 26 -59 4 -19 18 -52 31 -72 13 -21 24 -44 24 -53 0 -8 11 -36 25 -62 42
-82 85 -179 85 -194 0 -8 12 -32 25 -54 14 -22 25 -47 25 -56 0 -10 14 -43 30
-74 17 -31 30 -64 30 -74 0 -9 12 -34 25 -56 14 -22 25 -48 25 -58 0 -10 11
-35 25 -55 14 -20 25 -46 25 -58 0 -12 8 -32 19 -45 10 -13 24 -42 31 -64 7
-22 24 -60 37 -84 12 -24 23 -51 23 -60 0 -9 12 -34 25 -56 14 -22 25 -49 25
-60 0 -11 11 -37 25 -57 14 -20 25 -43 25 -51 0 -8 13 -38 29 -68 15 -30 31
-67 35 -83 4 -16 16 -41 27 -54 10 -14 19 -36 19 -50 0 -14 11 -44 24 -66 13
-23 27 -57 31 -76 4 -19 18 -53 30 -75 12 -22 26 -53 30 -70 3 -16 13 -38 22
-47 8 -9 19 -36 24 -60 6 -23 16 -50 24 -58 7 -8 20 -38 28 -65 8 -28 24 -68
36 -90 11 -22 21 -47 21 -56 0 -9 11 -37 25 -60 14 -24 25 -50 25 -58 0 -23
43 -102 61 -112 14 -7 22 2 48 54 17 34 31 66 31 71 0 4 9 20 19 35 11 15 23
40 27 57 4 16 18 45 31 64 12 19 23 42 23 51 0 9 11 37 25 63 14 26 25 53 25
59 0 7 13 39 30 72 16 33 30 69 30 81 0 11 11 35 24 52 13 18 26 50 30 71 3
21 13 44 21 51 8 7 22 37 31 66 8 30 19 56 24 59 5 3 16 29 25 58 10 28 26 61
36 73 11 11 19 29 19 40 0 10 14 46 30 79 16 33 30 68 30 78 0 11 9 31 20 46
10 16 23 46 28 69 5 22 19 54 31 70 11 17 21 38 21 49 0 10 11 36 25 58 13 22
25 47 25 56 0 10 14 43 30 74 17 31 30 64 30 74 0 9 11 34 25 56 13 22 25 49
25 60 0 11 9 34 20 50 11 17 27 54 35 83 9 28 20 52 25 52 5 0 17 24 25 54 9
30 22 60 30 66 8 7 20 31 26 54 6 22 19 50 29 61 10 11 21 36 25 55 4 19 15
46 25 60 9 14 23 43 30 65 7 22 21 51 31 64 11 13 19 31 19 40 0 9 13 42 29
73 15 32 27 70 25 85 -1 15 -2 37 -3 49 -1 12 -13 27 -28 35 -16 8 -43 24 -62
37 -19 12 -42 22 -51 22 -10 0 -28 9 -42 19 -13 11 -42 24 -64 30 -23 6 -49
20 -59 31 -10 11 -23 20 -29 20 -14 0 -107 59 -155 98 -72 58 -141 138 -141
165 0 8 -11 34 -24 59 -13 24 -29 69 -35 99 -7 29 -19 64 -27 76 -8 13 -17 42
-20 66 -9 82 -15 108 -34 151 -10 24 -21 75 -25 115 -4 40 -15 92 -25 114 -10
23 -21 62 -25 87 -13 86 -83 209 -97 171 -1 -5 -21 -17 -42 -27 -42 -20 -48
-33 -60 -116 -3 -24 -9 -65 -13 -93 -7 -53 -7 -223 0 -703 5 -322 7 -333 59
-313 18 7 31 6 42 -2 17 -13 29 -94 16 -102 -15 -9 -39 -141 -45 -245 -6 -117
-9 -142 -29 -215 -8 -27 -17 -102 -21 -165 -8 -121 -12 -165 -15 -165 -1 0 -3
-7 -5 -15 -1 -8 -7 -33 -13 -55 -11 -42 -18 -99 -27 -249 -3 -49 -8 -93 -11
-98 -6 -9 -12 -32 -29 -116 -13 -65 -28 -92 -51 -92 -22 0 -31 30 -38 120 -4
47 -12 103 -18 125 -5 22 -12 49 -14 60 -2 11 -6 30 -8 41 -2 12 -7 75 -11
140 -4 66 -14 148 -22 184 -8 36 -17 74 -19 85 -3 11 -7 63 -10 115 -3 52 -12
120 -20 150 -8 30 -17 62 -19 70 -5 23 -14 106 -20 195 -3 44 -13 100 -21 125
-23 66 -27 113 -12 133 12 15 19 16 68 6 72 -14 69 -13 112 -28 21 -7 43 -9
49 -5 16 10 5 266 -16 364 -3 14 -8 57 -10 95 -8 133 -17 197 -30 228 -17 40
-23 79 -31 197 -3 52 -13 109 -20 125 -8 17 -20 62 -28 102 -9 47 -23 83 -41
107 -48 63 -79 71 -115 29z"/>
</g>
</svg>
