<?xml version="1.0" encoding="UTF-8"?>
<svg xmlns="http://www.w3.org/2000/svg" xmlns:xlink="http://www.w3.org/1999/xlink" width="5120px" height="1067px" viewBox="0 0 5120 1067" version="1.1">
<g id="surface1">
<path style=" stroke:none;fill-rule:nonzero;fill:rgb(20.392157%,38.039216%,45.09804%);fill-opacity:1;" d="M 213.644531 469.179688 C 674.375 469.179688 674.375 469.179688 743.386719 476.832031 C 783.28125 481.976562 813.125 488.457031 837.082031 496.847656 C 866.667969 509.046875 872.96875 521.363281 870.675781 534.824219 C 867.65625 544.765625 849.6875 554.144531 824.21875 562.480469 C 796.875 570.023438 763.855469 577.449219 722.449219 581.574219 C 714.011719 581.984375 705.574219 582.34375 697.03125 582.636719 C 717.917969 591.039062 743.488281 598.667969 769.375 606.429688 C 787.394531 611.832031 805.15625 617.28125 822.917969 622.71875 L 833.855469 626.054688 C 856.71875 633.054688 878.957031 640.140625 900.519531 647.304688 C 871.5625 647.597656 842.605469 647.816406 813.644531 647.945312 C 803.800781 648.011719 793.957031 648.085938 784.113281 648.195312 C 721.5625 648.8125 721.5625 648.8125 691.925781 647.304688 C 676.09375 645.125 670.3125 643.191406 661.300781 639.71875 L 656.769531 637.808594 C 647.449219 634.183594 636.09375 630.851562 625.050781 627.453125 C 615.050781 624.382812 605.207031 621.289062 595.417969 618.195312 C 581.824219 613.886719 568.230469 609.585938 554.582031 605.289062 L 535 599.101562 L 525.675781 596.171875 L 517.136719 593.457031 L 509.582031 591.070312 C 503.644531 588.996094 503.644531 588.996094 498.59375 585.816406 L 401.925781 586.871094 L 396.824219 647.304688 L 213.644531 647.304688 Z M 401.925781 503.109375 L 396.824219 504.171875 C 396.355469 505.625 396.144531 507.09375 396.144531 508.558594 L 396.09375 511.378906 L 396.144531 514.441406 L 396.144531 517.566406 C 396.144531 519.746094 396.144531 521.941406 396.144531 524.121094 C 396.199219 527.476562 396.144531 530.839844 396.144531 534.195312 C 396.144531 536.3125 396.144531 538.429688 396.144531 540.554688 L 396.09375 543.617188 L 396.144531 546.4375 L 396.199219 548.933594 L 396.824219 550.824219 L 401.925781 551.886719 C 415.730469 552.015625 429.425781 552.082031 443.28125 552.09375 L 455.9375 552.113281 C 464.84375 552.125 473.75 552.136719 482.65625 552.136719 C 496.199219 552.148438 509.6875 552.179688 523.175781 552.210938 C 531.875 552.222656 540.519531 552.222656 549.167969 552.234375 L 561.300781 552.265625 C 589.480469 552.246094 610.15625 551.082031 635.9375 548.707031 C 653.4375 546.394531 662.707031 544.777344 672.863281 541.074219 C 684.425781 535.714844 690.15625 530.742188 688.75 524.859375 C 685.261719 519.996094 678.90625 515.796875 666.457031 511.585938 C 649.6875 507.917969 633.074219 505.746094 610 504.105469 C 588.488281 502.871094 567.917969 502.828125 545.675781 502.871094 L 533.230469 502.871094 C 524.582031 502.871094 515.9375 502.878906 507.34375 502.890625 C 494.0625 502.914062 480.78125 502.914062 467.550781 502.914062 C 459.113281 502.914062 450.730469 502.925781 442.34375 502.933594 L 430.261719 502.933594 C 420.832031 502.957031 411.355469 503.023438 401.925781 503.109375 M 1816.980469 475.214844 C 1870.730469 481.105469 1914.53125 489.464844 1948.644531 499.929688 C 1998.230469 517.109375 2018.59375 535.691406 2021.300781 555.609375 C 2022.5 575.808594 2003.332031 594.152344 1959.738281 612.191406 C 1942.917969 618.292969 1921.511719 623.253906 1897.761719 628.222656 L 1887.5 630.46875 C 1845.050781 639.132812 1787.96875 644.722656 1730.832031 647.835938 C 1651.925781 651.582031 1557.550781 651.539062 1479.792969 646.664062 C 1414.84375 642.03125 1356.300781 635.0625 1310.46875 624.25 C 1258.175781 610.457031 1228.957031 595.085938 1214.6875 577.859375 C 1201.613281 556.238281 1209.738281 534.171875 1246.511719 513.714844 C 1274.167969 500.6875 1314.167969 489.496094 1368.59375 480.847656 C 1427.550781 472.238281 1494.21875 468.050781 1565.207031 466.292969 C 1652.761719 464.78125 1737.082031 467.464844 1816.980469 475.214844 M 1498.230469 506.863281 C 1463.4375 512.140625 1440.363281 518.476562 1421.09375 526.433594 C 1392.761719 540.207031 1388.386719 555.394531 1396.25 570.144531 C 1403.332031 581.160156 1418.800781 591.210938 1451.042969 600.253906 C 1473.59375 606.082031 1498.4375 609.707031 1531.511719 612.605469 C 1570.730469 615.40625 1607.1875 616.5 1648.4375 615.503906 C 1687.863281 613.886719 1722.1875 611.097656 1754.21875 605.996094 C 1787.394531 599.644531 1806.40625 591.839844 1821.457031 583.082031 C 1842.394531 568.113281 1842.082031 552.210938 1826.511719 537.039062 C 1813.074219 527.660156 1794.425781 519.183594 1762.65625 511.898438 C 1736.199219 506.703125 1701.980469 503.304688 1666.925781 501.394531 C 1608.019531 499.613281 1549.949219 500.285156 1498.230469 506.863281 M 4406.09375 469.179688 L 4635.050781 469.179688 C 4657.917969 481.105469 4657.917969 481.105469 4665.417969 485.492188 L 4670.625 488.519531 L 4676.042969 491.722656 L 4681.980469 495.175781 C 4688.386719 498.917969 4694.792969 502.675781 4701.199219 506.417969 L 4714.792969 514.363281 L 4735.886719 526.714844 C 4758.175781 539.773438 4780.574219 552.820312 4802.917969 565.867188 C 4823.644531 577.957031 4844.375 590.050781 4865.105469 602.152344 C 4876.925781 609.042969 4888.75 615.949219 4900.519531 622.851562 C 4904.113281 624.957031 4907.761719 627.074219 4911.355469 629.179688 C 4916.25 632.054688 4921.199219 634.921875 4926.09375 637.796875 L 4930.519531 640.371094 C 4940.3125 646.132812 4940.3125 646.132812 4940.3125 647.304688 L 4752.082031 647.304688 C 4729.113281 636.558594 4729.113281 636.558594 4721.925781 632.273438 L 4717.238281 629.492188 L 4712.605469 626.703125 L 4707.761719 623.816406 C 4696.09375 616.835938 4696.09375 616.835938 4696.09375 614.4375 L 4345.050781 614.4375 L 4329.738281 626.105469 C 4326.824219 628.039062 4323.75 629.972656 4320.46875 631.882812 L 4316.199219 634.398438 L 4310.988281 637.4375 L 4294.167969 647.304688 L 4105.886719 647.304688 C 4117.34375 636.570312 4117.34375 636.570312 4125.988281 631.546875 L 4131.824219 628.09375 L 4138.175781 624.425781 L 4144.84375 620.515625 C 4150.832031 617.011719 4156.824219 613.503906 4162.863281 610 C 4169.21875 606.308594 4175.519531 602.617188 4181.875 598.929688 C 4193.488281 592.121094 4205.15625 585.328125 4216.824219 578.542969 C 4227.1875 572.519531 4237.5 566.496094 4247.8125 560.472656 C 4300.050781 529.992188 4352.917969 499.582031 4406.09375 469.179688 M 4518.019531 512.648438 C 4503.488281 520.007812 4490.417969 527.433594 4478.230469 534.964844 L 4472.917969 538.230469 C 4467.394531 541.628906 4461.824219 545.039062 4456.300781 548.433594 L 4445.105469 555.328125 C 4431.980469 563.359375 4418.957031 571.402344 4406.09375 579.445312 L 4635.050781 579.445312 L 4607.394531 562.15625 L 4528.175781 512.648438 Z M 360.261719 378.125 C 376.457031 379.058594 376.457031 379.058594 391.09375 381.304688 C 401.925781 384.355469 401.925781 384.355469 405.105469 388.066406 C 401.925781 391.777344 401.925781 391.777344 392.394531 394.363281 C 387.1875 395.296875 381.875 396.195312 376.457031 397.074219 L 363.800781 399.203125 L 350.050781 401.492188 L 336.144531 403.804688 L 325.574219 405.5625 L 338.542969 405.5625 C 622.03125 405.628906 905.574219 405.714844 1189.0625 405.835938 L 1207.394531 405.84375 C 1305.417969 405.886719 1403.386719 405.910156 1501.40625 405.933594 C 1601.875 405.953125 1702.394531 405.984375 1802.917969 406.039062 C 1864.949219 406.0625 1927.03125 406.082031 1989.0625 406.082031 C 2031.5625 406.09375 2074.113281 406.117188 2116.613281 406.136719 C 2141.144531 406.148438 2165.675781 406.160156 2190.261719 406.160156 C 2212.707031 406.160156 2235.207031 406.171875 2257.65625 406.191406 C 2265.78125 406.191406 2273.90625 406.191406 2282.082031 406.191406 C 2293.125 406.179688 2304.167969 406.191406 2315.207031 406.214844 L 2333.800781 406.214844 C 2352.65625 406.671875 2364.949219 407.746094 2381.09375 409.796875 C 2388.4375 412.25 2388.4375 412.25 2391.300781 415.105469 C 2390.625 418.347656 2390.625 418.347656 2386.199219 421.464844 C 2377.863281 423.742188 2377.863281 423.742188 2365.832031 425.707031 C 2350.207031 426.238281 2350.207031 426.238281 2331.40625 426.238281 L 2320.832031 426.261719 C 2309.167969 426.285156 2297.449219 426.273438 2285.730469 426.25 C 2277.292969 426.261719 2268.855469 426.273438 2260.363281 426.285156 C 2237.082031 426.304688 2213.855469 426.292969 2190.574219 426.285156 C 2165.46875 426.285156 2140.363281 426.304688 2115.3125 426.316406 C 2071.824219 426.335938 2028.386719 426.347656 1984.894531 426.347656 C 1922.03125 426.347656 1859.21875 426.371094 1796.355469 426.390625 C 1694.375 426.433594 1592.394531 426.46875 1490.46875 426.480469 C 1391.40625 426.488281 1292.292969 426.511719 1193.230469 426.542969 L 1174.738281 426.554688 L 1082.863281 426.585938 C 828.75 426.675781 574.636719 426.726562 320.519531 426.761719 L 334.425781 428.976562 L 352.605469 431.875 L 361.769531 433.316406 C 394.0625 438.472656 394.0625 438.472656 401.925781 440.546875 C 403.957031 443.835938 405 445.886719 401.925781 449.035156 C 391.40625 452.214844 391.40625 452.214844 376.457031 454.332031 C 359.6875 454.730469 359.6875 454.730469 340.886719 454.332031 C 325.574219 452.617188 325.574219 452.617188 309.6875 450.097656 L 300.832031 448.707031 C 294.167969 447.664062 287.550781 446.613281 280.988281 445.550781 C 268.125 443.496094 255.261719 441.457031 242.34375 439.4375 C 134.324219 422.429688 134.324219 422.429688 126.824219 418.945312 C 127.1875 415.894531 130.417969 413.507812 136.40625 410.730469 C 148.4375 406.757812 167.34375 404.402344 185.675781 401.785156 L 211.71875 397.921875 L 225.3125 395.933594 C 248.074219 392.570312 270.46875 389.085938 292.863281 385.613281 C 300.886719 384.363281 308.957031 383.128906 317.03125 381.878906 L 327.292969 380.304688 C 339.84375 378.449219 344.480469 377.984375 360.261719 378.125 M 3108.644531 311.199219 L 3118.855469 312.25 C 3124.113281 314.355469 3124.113281 314.355469 3129.792969 317.15625 L 3136.300781 320.347656 L 3143.28125 323.84375 L 3150.625 327.445312 C 3157.136719 330.660156 3163.644531 333.871094 3170.15625 337.09375 C 3176.875 340.417969 3183.59375 343.726562 3190.3125 347.046875 C 3200.886719 352.238281 3211.355469 357.425781 3221.875 362.601562 C 3237.96875 370.546875 3254.21875 378.480469 3270.519531 386.40625 L 3277.449219 389.769531 C 3288.75 395.285156 3300.261719 400.777344 3311.875 406.269531 L 3319.167969 409.730469 C 3323.699219 411.867188 3328.230469 414.007812 3332.8125 416.15625 L 3338.800781 418.980469 L 3344.113281 421.453125 C 3347.8125 423.582031 3347.8125 423.582031 3347.8125 426.761719 L 3339.0625 427.226562 C 3301.667969 429.496094 3268.230469 432.523438 3240.9375 438.429688 C 3207.34375 449.78125 3191.613281 463.839844 3174.792969 476.601562 C 3145.574219 474.617188 3145.574219 474.617188 3134.113281 473.421875 C 3117.96875 463.523438 3122.761719 452.246094 3123.28125 441.945312 C 3123.332031 440.15625 3123.386719 438.375 3123.4375 436.582031 C 3123.542969 432.253906 3123.699219 427.921875 3123.957031 423.582031 L 3154.480469 425.707031 L 3152.5 423.558594 C 3146.300781 416.558594 3140.988281 409.523438 3136.613281 402.46875 L 3134.582031 399.3125 C 3132.5 396.023438 3130.46875 392.746094 3128.386719 389.457031 L 3124.113281 382.714844 C 3120.625 377.253906 3117.1875 371.796875 3113.75 366.324219 C 3106.300781 373.652344 3100.519531 380.976562 3095.886719 388.402344 L 3093.90625 391.570312 C 3091.824219 394.859375 3089.738281 398.160156 3087.707031 401.449219 L 3083.386719 408.199219 C 3079.949219 413.683594 3076.511719 419.164062 3073.074219 424.644531 L 3108.644531 423.582031 C 3110.832031 433.589844 3105.417969 443.117188 3097.605469 452.953125 C 3095.625 455.480469 3093.855469 458.019531 3092.136719 460.570312 C 3090.886719 462.1875 3089.582031 463.816406 3088.28125 465.433594 L 3086.824219 467.722656 C 3085 469.851562 3085 469.851562 3078.125 473.421875 C 3066.40625 475.0625 3056.300781 475.722656 3042.550781 476.601562 C 3024.894531 468.636719 3010 460.507812 2995.46875 452.277344 L 2988.386719 448.328125 L 2981.71875 444.5625 L 2975.625 441.144531 C 2971.300781 438.429688 2971.300781 438.429688 2971.300781 436.3125 L 2958.230469 435.488281 C 2939.582031 434.097656 2923.125 432.339844 2905.78125 430.34375 L 2888.019531 428.3125 L 2874.636719 426.761719 C 2885.78125 419.292969 2899.792969 412.195312 2914.949219 405.03125 C 2922.34375 401.523438 2929.6875 397.996094 2937.082031 394.480469 L 2941.769531 392.246094 C 2959.21875 383.910156 2976.40625 375.550781 2993.542969 367.195312 L 3022.292969 353.191406 C 3038.230469 345.441406 3054.167969 337.691406 3070.105469 329.941406 L 3094.636719 318.003906 L 3102.863281 314.007812 Z M 3047.605469 516.894531 C 3059.6875 517.089844 3059.6875 517.089844 3073.074219 517.957031 C 3087.449219 523.816406 3089.949219 530.558594 3094.84375 536.996094 C 3096.5625 539.199219 3098.332031 541.390625 3100.105469 543.582031 C 3106.824219 552.039062 3110.363281 560.253906 3108.644531 568.851562 C 3091.667969 568.199219 3078.019531 567.417969 3062.863281 565.671875 L 3065.3125 568.65625 C 3080.46875 587.726562 3091.71875 606.929688 3103.59375 626.105469 L 3108.644531 626.105469 L 3110 624.035156 C 3114.53125 616.925781 3119.0625 609.824219 3123.59375 602.726562 C 3125.3125 600.066406 3126.980469 597.417969 3128.699219 594.761719 C 3131.09375 590.949219 3133.542969 587.152344 3135.988281 583.34375 L 3138.28125 579.738281 L 3140.417969 576.394531 L 3142.34375 573.441406 C 3144.269531 570.96875 3144.269531 570.96875 3149.375 567.789062 L 3123.957031 568.851562 C 3123.699219 563.621094 3123.488281 558.398438 3123.386719 553.179688 C 3123.332031 551.410156 3123.28125 549.640625 3123.175781 547.859375 C 3122.03125 524.328125 3122.03125 524.328125 3134.113281 519.011719 C 3147.238281 517.652344 3147.238281 517.652344 3159.53125 516.894531 C 3170.3125 522.191406 3177.03125 527.300781 3182.550781 532.945312 C 3191.5625 541.652344 3200.574219 550.3125 3220.625 558.246094 C 3247.5 564.054688 3281.613281 567.210938 3317.8125 569.839844 L 3327.449219 570.96875 C 3332.03125 572.878906 3332.03125 572.878906 3332.550781 575.210938 C 3328.644531 577.761719 3328.644531 577.761719 3322.1875 580.660156 L 3314.894531 583.980469 L 3306.769531 587.597656 C 3301.09375 590.210938 3295.363281 592.816406 3289.6875 595.433594 L 3285.15625 597.507812 C 3268.386719 605.214844 3252.605469 613.007812 3236.824219 620.800781 L 3218.957031 629.601562 L 3214.425781 631.847656 C 3197.605469 640.140625 3180.675781 648.421875 3163.699219 656.703125 L 3153.644531 661.601562 C 3148.957031 663.878906 3144.269531 666.160156 3139.636719 668.425781 L 3135.46875 670.457031 C 3127.1875 674.460938 3118.230469 678.414062 3108.644531 682.296875 L 3098.488281 681.234375 C 3093.75 679.214844 3089.480469 677.144531 3085.363281 675.070312 L 3081.511719 673.125 C 3078.75 671.726562 3075.988281 670.335938 3073.230469 668.9375 C 3065.832031 665.148438 3058.28125 661.371094 3050.78125 657.59375 L 3046.09375 655.230469 C 3031.40625 647.847656 3016.199219 640.519531 3000.886719 633.195312 L 2984.636719 625.421875 L 2980.363281 623.371094 C 2961.199219 614.167969 2942.136719 604.953125 2923.175781 595.726562 L 2910.730469 589.722656 C 2904.949219 586.902344 2899.113281 584.089844 2893.332031 581.269531 L 2888.074219 578.730469 C 2879.21875 574.417969 2871.199219 570.132812 2864.425781 565.671875 C 2873.644531 564.695312 2882.917969 563.71875 2892.136719 562.75 L 2907.65625 561.113281 C 2925.519531 559.300781 2925.519531 559.300781 2937.082031 558.484375 C 2949.636719 557.550781 2960.15625 556.597656 2971.300781 555.066406 C 2981.5625 552.007812 2986.769531 548.78125 2992.292969 545.253906 C 2995.574219 543.355469 2998.855469 541.457031 3002.1875 539.554688 L 3007.03125 536.667969 C 3014.582031 532.382812 3023.386719 528.226562 3032.34375 524.046875 L 3037.03125 521.855469 C 3040.519531 520.191406 3044.0625 518.542969 3047.605469 516.894531 M 3388.488281 446.917969 C 3451.71875 452.34375 3514.738281 457.859375 3577.394531 463.546875 C 3654.792969 470.566406 3732.5 477.460938 3810.15625 484.351562 L 3819.738281 485.199219 C 3859.167969 488.707031 3898.59375 492.1875 3938.019531 495.683594 C 3924.011719 498.789062 3911.042969 500.113281 3892.03125 501.75 L 3882.550781 502.578125 C 3875.730469 503.171875 3868.90625 503.769531 3862.03125 504.355469 C 3847.082031 505.648438 3832.1875 506.949219 3817.238281 508.265625 L 3793.074219 510.371094 C 3748.644531 514.246094 3704.375 518.195312 3660.105469 522.15625 C 3646.457031 523.382812 3632.761719 524.601562 3619.113281 525.824219 C 3581.667969 529.167969 3544.269531 532.511719 3506.925781 535.878906 C 3493.4375 537.09375 3479.949219 538.308594 3466.457031 539.511719 C 3457.394531 540.339844 3448.386719 541.152344 3439.375 541.964844 C 3434.0625 542.445312 3428.800781 542.921875 3423.332031 543.410156 L 3409.53125 544.65625 C 3398.699219 545.515625 3398.699219 545.515625 3388.488281 545.515625 L 3378.332031 551.886719 C 3368.175781 548.707031 3368.175781 548.707031 3365.9375 545.980469 C 3362.394531 542.042969 3358.019531 539.40625 3347.8125 535.976562 C 3330.105469 533.152344 3310.3125 531.175781 3290.417969 529.113281 C 3260.261719 525.96875 3239.53125 522.808594 3220.625 516.894531 L 3212.136719 514.667969 L 3205.363281 512.648438 L 3205.363281 510.53125 C 3248.855469 508.730469 3292.65625 507.492188 3336.613281 506.320312 C 3353.28125 505.875 3369.949219 505.421875 3386.613281 504.964844 C 3417.5 504.117188 3448.386719 503.28125 3479.269531 502.457031 C 3500.886719 501.882812 3522.5 501.296875 3544.0625 500.699219 C 3552.292969 500.472656 3560.519531 500.253906 3568.699219 500.035156 C 3580.15625 499.742188 3591.5625 499.429688 3602.96875 499.101562 L 3622.65625 498.582031 L 3637.8125 497.8125 L 3647.96875 494.621094 L 3636.667969 494.480469 C 3588.125 493.785156 3540.15625 492.503906 3491.925781 491.148438 L 3466.511719 490.429688 C 3444.480469 489.824219 3422.449219 489.203125 3400.417969 488.574219 C 3377.8125 487.945312 3355.261719 487.304688 3332.65625 486.675781 C 3288.542969 485.4375 3244.375 484.199219 3200.261719 482.964844 C 3209.425781 478.894531 3209.425781 478.894531 3218.386719 477.363281 L 3227.96875 476.191406 L 3238.957031 474.832031 C 3261.300781 472.238281 3283.800781 469.710938 3306.457031 467.257812 L 3321.09375 465.640625 L 3335.050781 464.121094 L 3347.65625 462.742188 C 3357.96875 461.753906 3357.96875 461.753906 3368.175781 461.753906 L 3370 459.855469 L 3372.605469 457.316406 L 3375.105469 454.820312 C 3378.542969 452.0625 3383.332031 449.542969 3388.488281 446.917969 M 4792.238281 378.242188 C 4809.167969 379.113281 4817.96875 380.1875 4831.511719 382.421875 L 4844.582031 384.527344 L 4858.28125 386.808594 L 4886.824219 391.441406 L 4901.09375 393.785156 C 4924.21875 397.53125 4947.8125 401.167969 4971.40625 404.792969 C 5001.875 409.515625 5001.875 409.515625 5011.5625 411.921875 C 5015.105469 417.71875 5015.105469 417.71875 5011.5625 420.402344 C 4982.34375 427.5 4942.8125 432.894531 4907.292969 438.527344 C 4898.800781 439.871094 4890.3125 441.230469 4881.875 442.585938 C 4869.738281 444.527344 4857.5 446.460938 4845.261719 448.371094 L 4834.011719 450.183594 C 4816.09375 452.941406 4805.9375 454.265625 4783.386719 454.808594 C 4767.34375 454.332031 4767.34375 454.332031 4752.707031 452.679688 C 4741.875 450.097656 4741.875 450.097656 4736.457031 446.515625 C 4736.769531 442.671875 4736.769531 442.671875 4744.84375 439.570312 C 4758.75 435.878906 4772.761719 433.664062 4791.511719 431.136719 L 4800.78125 429.84375 C 4808.230469 428.8125 4815.78125 427.78125 4823.28125 426.761719 L 4806.40625 426.761719 C 4671.09375 426.71875 4535.78125 426.664062 4400.46875 426.566406 C 4335 426.53125 4269.582031 426.488281 4204.113281 426.480469 C 4147.082031 426.46875 4090.050781 426.433594 4033.019531 426.390625 C 4002.8125 426.371094 3972.65625 426.347656 3942.449219 426.347656 C 3914.011719 426.347656 3885.574219 426.335938 3857.1875 426.292969 C 3846.71875 426.292969 3836.300781 426.285156 3825.832031 426.292969 C 3811.613281 426.304688 3797.394531 426.285156 3783.175781 426.25 L 3770.574219 426.285156 C 3759.011719 426.238281 3759.011719 426.238281 3739.582031 425.707031 C 3726.980469 423.777344 3726.980469 423.777344 3719.21875 421.464844 C 3714.425781 417.816406 3714.425781 417.816406 3714.113281 414.039062 C 3719.84375 411.066406 3719.84375 411.066406 3729.375 408.742188 C 3751.667969 406.246094 3773.59375 406.3125 3798.28125 406.324219 L 3811.511719 406.300781 C 3826.09375 406.289062 3840.730469 406.289062 3855.3125 406.277344 L 3886.769531 406.246094 C 3915.207031 406.226562 3943.699219 406.203125 3972.136719 406.191406 C 4001.875 406.171875 4031.613281 406.148438 4061.355469 406.117188 C 4117.65625 406.074219 4173.957031 406.03125 4230.261719 405.996094 C 4294.375 405.953125 4358.488281 405.898438 4422.605469 405.84375 C 4554.480469 405.738281 4686.355469 405.640625 4818.175781 405.5625 L 4804.269531 403.425781 L 4786.09375 400.589844 L 4776.925781 399.191406 C 4759.167969 396.402344 4746.25 393.972656 4736.769531 389.652344 C 4737.136719 386.40625 4737.136719 386.40625 4741.875 383.289062 C 4751.40625 380.835938 4751.40625 380.835938 4762.238281 379.058594 C 4777.5 377.992188 4777.5 377.992188 4792.238281 378.242188 M 2819.894531 449.121094 L 2828.855469 450.097656 C 2832.96875 452.289062 2832.96875 452.289062 2836.199219 455.058594 C 2840.886719 458.019531 2840.886719 458.019531 2849.167969 460.691406 C 2869.582031 463.601562 2891.71875 465.359375 2914.6875 467.191406 C 2975.417969 472.152344 2975.417969 472.152344 2992.449219 475.691406 C 2999.6875 477.710938 3006.144531 479.695312 3011.980469 481.898438 C 2987.238281 483.484375 2963.488281 484.527344 2937.707031 485.230469 L 2926.5625 485.546875 C 2914.480469 485.894531 2902.394531 486.21875 2890.3125 486.546875 C 2881.875 486.785156 2873.4375 487.011719 2865 487.25 C 2847.34375 487.738281 2829.738281 488.226562 2812.082031 488.714844 C 2789.480469 489.335938 2766.875 489.953125 2744.324219 490.59375 C 2726.875 491.070312 2709.480469 491.550781 2692.03125 492.039062 L 2667.082031 492.730469 C 2655.417969 493.046875 2643.800781 493.371094 2632.136719 493.6875 L 2612.082031 494.242188 C 2597.65625 494.566406 2583.855469 494.707031 2569.375 494.621094 L 2574.425781 496.75 C 2587.03125 497.289062 2599.269531 497.703125 2611.980469 498.039062 L 2623.90625 498.375 C 2636.925781 498.757812 2650 499.113281 2663.074219 499.472656 C 2672.136719 499.722656 2681.199219 499.984375 2690.261719 500.230469 C 2714.167969 500.917969 2738.074219 501.578125 2761.980469 502.238281 C 2790.988281 503.042969 2819.949219 503.859375 2848.957031 504.671875 C 2871.511719 505.3125 2894.113281 505.941406 2916.667969 506.570312 L 2929.269531 506.917969 C 2937.03125 507.136719 2944.792969 507.351562 2952.550781 507.558594 C 2970.832031 508.070312 2988.90625 508.664062 3006.925781 509.46875 C 3005.261719 512.441406 3000.417969 514.191406 2992.65625 516.742188 C 2976.199219 520.769531 2955.625 522.015625 2932.238281 523.753906 L 2915.675781 524.980469 C 2878.019531 527.738281 2878.019531 527.738281 2845.625 532.402344 C 2834.0625 535.769531 2827.707031 539.371094 2823.75 543.398438 C 2806.511719 542.769531 2791.457031 541.867188 2775.417969 540.414062 L 2761.980469 539.210938 L 2747.449219 537.875 L 2732.082031 536.484375 C 2721.09375 535.496094 2710.105469 534.5 2699.113281 533.5 C 2669.949219 530.851562 2640.78125 528.214844 2611.613281 525.578125 L 2593.4375 523.9375 C 2530.105469 518.21875 2466.613281 512.574219 2403.074219 506.949219 L 2371.5625 504.160156 C 2347.605469 502.042969 2323.644531 499.929688 2299.6875 497.8125 L 2299.6875 494.621094 C 2400.363281 485.535156 2500.988281 476.449219 2601.875 467.484375 C 2633.90625 464.628906 2665.9375 461.777344 2697.761719 458.84375 C 2711.09375 457.617188 2724.375 456.402344 2737.707031 455.199219 C 2746.875 454.351562 2755.988281 453.503906 2765.105469 452.660156 L 2781.613281 451.148438 L 2795.9375 449.824219 C 2808.488281 449.035156 2808.488281 449.035156 2819.894531 449.121094 "/>
<path style=" stroke:none;fill-rule:nonzero;fill:rgb(20.392157%,38.039216%,45.09804%);fill-opacity:1;" d="M 3134.113281 476.601562 C 3152.863281 478.1875 3152.863281 478.1875 3164.636719 479.78125 L 3164.636719 481.898438 L 3173.855469 482.496094 C 3185 484.027344 3185 484.027344 3193.90625 487.273438 C 3202.136719 491.851562 3203.75 496.152344 3200.261719 500.992188 C 3195.625 504.195312 3189.53125 506.789062 3179.894531 509.46875 C 3164.21875 512.464844 3149.21875 514.429688 3129.011719 515.828125 C 3105.46875 516.425781 3083.90625 516.253906 3061.925781 514.308594 C 3041.925781 511.910156 3029.269531 508.871094 3017.449219 504.769531 C 3009.53125 500.816406 3008.125 497.441406 3009.375 493.1875 C 3012.863281 489.464844 3018.488281 486.785156 3029.269531 483.734375 C 3059.480469 476.949219 3090.3125 475.269531 3134.113281 476.601562 M 3081.667969 491.113281 C 3072.292969 493.4375 3072.292969 493.4375 3070.207031 496.214844 C 3072.1875 499.09375 3072.1875 499.09375 3084.167969 501.382812 L 3098.488281 503.109375 C 3111.980469 503.292969 3111.980469 503.292969 3123.957031 502.042969 C 3134.167969 500.351562 3134.167969 500.351562 3139.21875 497.8125 C 3139.21875 494.492188 3139.21875 494.492188 3134.113281 491.441406 C 3120.105469 489.183594 3120.105469 489.183594 3106.457031 488.921875 C 3092.761719 489.128906 3092.761719 489.128906 3081.667969 491.113281 "/>
</g>
</svg>
