<?xml version="1.0" encoding="UTF-8"?>
<svg xmlns="http://www.w3.org/2000/svg" xmlns:xlink="http://www.w3.org/1999/xlink" width="5200px" height="1520px" viewBox="0 0 5200 1520" version="1.1">
<g id="surface1">
<path style=" stroke:none;fill-rule:nonzero;fill:rgb(20.392157%,38.039216%,45.09804%);fill-opacity:1;" d="M 216.984375 668.371094 C 684.914062 668.371094 684.914062 668.371094 755 679.273438 C 795.519531 686.601562 825.828125 695.832031 850.164062 707.785156 C 880.207031 725.164062 886.609375 742.714844 884.28125 761.886719 C 881.214844 776.050781 862.964844 789.410156 837.097656 801.285156 C 809.328125 812.03125 775.789062 822.605469 733.734375 828.480469 C 725.167969 829.070312 716.597656 829.578125 707.921875 829.996094 C 729.132812 841.964844 755.105469 852.835938 781.398438 863.890625 C 799.699219 871.589844 817.738281 879.351562 835.773438 887.097656 L 846.882812 891.847656 C 870.105469 901.820312 892.691406 911.917969 914.589844 922.121094 C 885.179688 922.539062 855.769531 922.847656 826.359375 923.035156 C 816.363281 923.125 806.363281 923.234375 796.367188 923.390625 C 732.835938 924.269531 732.835938 924.269531 702.738281 922.121094 C 686.65625 919.011719 680.785156 916.261719 671.636719 911.3125 L 667.03125 908.59375 C 657.5625 903.425781 646.03125 898.679688 634.820312 893.839844 C 624.664062 889.464844 614.664062 885.058594 604.71875 880.652344 C 590.914062 874.511719 577.109375 868.390625 563.25 862.265625 L 543.359375 853.453125 L 533.890625 849.277344 L 525.214844 845.414062 L 517.546875 842.011719 C 511.515625 839.058594 511.515625 839.058594 506.382812 834.527344 L 408.207031 836.027344 L 403.023438 922.121094 L 216.984375 922.121094 Z M 408.207031 716.707031 L 403.023438 718.222656 C 402.546875 720.292969 402.335938 722.378906 402.335938 724.46875 L 402.28125 728.488281 L 402.335938 732.847656 L 402.335938 737.300781 C 402.335938 740.410156 402.335938 743.53125 402.335938 746.640625 C 402.386719 751.417969 402.335938 756.210938 402.335938 760.988281 C 402.335938 764.003906 402.335938 767.019531 402.335938 770.050781 L 402.28125 774.410156 L 402.335938 778.429688 L 402.386719 781.988281 L 403.023438 784.675781 L 408.207031 786.191406 C 422.226562 786.378906 436.136719 786.472656 450.207031 786.488281 L 463.0625 786.519531 C 472.105469 786.53125 481.152344 786.546875 490.199219 786.546875 C 503.949219 786.5625 517.652344 786.609375 531.351562 786.65625 C 540.1875 786.671875 548.964844 786.671875 557.746094 786.6875 L 570.074219 786.734375 C 598.691406 786.703125 619.691406 785.046875 645.875 781.664062 C 663.648438 778.367188 673.0625 776.066406 683.378906 770.792969 C 695.121094 763.152344 700.941406 756.074219 699.511719 747.691406 C 695.96875 740.765625 689.515625 734.78125 676.871094 728.78125 C 659.839844 723.554688 642.964844 720.464844 619.53125 718.128906 C 597.683594 716.367188 576.789062 716.304688 554.203125 716.367188 L 541.5625 716.367188 C 532.78125 716.367188 524 716.382812 515.269531 716.398438 C 501.78125 716.425781 488.292969 716.425781 474.859375 716.425781 C 466.289062 716.425781 457.773438 716.441406 449.253906 716.457031 L 436.984375 716.457031 C 427.410156 716.488281 417.78125 716.582031 408.207031 716.707031 M 1845.371094 676.96875 C 1899.960938 685.363281 1944.445312 697.269531 1979.09375 712.175781 C 2029.453125 736.652344 2050.132812 763.125 2052.886719 791.496094 C 2054.101562 820.273438 2034.636719 846.402344 1990.359375 872.101562 C 1973.273438 880.789062 1951.535156 887.855469 1927.414062 894.9375 L 1916.992188 898.140625 C 1873.882812 910.476562 1815.90625 918.441406 1757.878906 922.878906 C 1677.738281 928.214844 1581.890625 928.152344 1502.914062 921.210938 C 1436.949219 914.605469 1377.496094 904.679688 1330.945312 889.28125 C 1277.835938 869.628906 1248.160156 847.734375 1233.667969 823.195312 C 1220.390625 792.394531 1228.640625 760.957031 1265.988281 731.8125 C 1294.074219 713.257812 1334.699219 697.316406 1389.976562 684.992188 C 1449.859375 672.730469 1517.566406 666.761719 1589.664062 664.257812 C 1678.585938 662.109375 1764.226562 665.925781 1845.371094 676.96875 M 1521.640625 722.054688 C 1486.304688 729.570312 1462.871094 738.601562 1443.296875 749.933594 C 1414.523438 769.554688 1410.078125 791.1875 1418.066406 812.199219 C 1425.261719 827.894531 1440.972656 842.210938 1473.714844 855.09375 C 1496.617188 863.394531 1521.851562 868.558594 1555.441406 872.6875 C 1595.273438 876.679688 1632.300781 878.238281 1674.195312 876.816406 C 1714.238281 874.511719 1749.097656 870.539062 1781.628906 863.273438 C 1815.324219 854.226562 1834.632812 843.109375 1849.917969 830.632812 C 1871.183594 809.308594 1870.867188 786.65625 1855.050781 765.039062 C 1841.402344 751.679688 1822.464844 739.605469 1790.199219 729.230469 C 1763.324219 721.824219 1728.574219 716.984375 1692.972656 714.261719 C 1633.144531 711.726562 1574.164062 712.683594 1521.640625 722.054688 M 4474.9375 668.371094 L 4707.476562 668.371094 C 4730.695312 685.363281 4730.695312 685.363281 4738.3125 691.609375 L 4743.601562 695.925781 L 4749.105469 700.484375 L 4755.136719 705.402344 C 4761.640625 710.738281 4768.148438 716.085938 4774.652344 721.421875 L 4788.460938 732.738281 L 4809.882812 750.335938 C 4832.523438 768.9375 4855.269531 787.523438 4877.960938 806.109375 C 4899.015625 823.332031 4920.066406 840.558594 4941.121094 857.796875 C 4953.128906 867.617188 4965.136719 877.449219 4977.089844 887.285156 C 4980.742188 890.285156 4984.445312 893.300781 4988.09375 896.300781 C 4993.066406 900.398438 4998.089844 904.480469 5003.0625 908.578125 L 5007.558594 912.242188 C 5017.503906 920.453125 5017.503906 920.453125 5017.503906 922.121094 L 4826.335938 922.121094 C 4803.007812 906.8125 4803.007812 906.8125 4795.707031 900.707031 L 4790.945312 896.746094 L 4786.238281 892.773438 L 4781.320312 888.660156 C 4769.46875 878.71875 4769.46875 878.71875 4769.46875 875.300781 L 4412.945312 875.300781 L 4397.390625 891.921875 C 4394.429688 894.675781 4391.308594 897.429688 4387.976562 900.148438 L 4383.636719 903.738281 L 4378.347656 908.066406 L 4361.261719 922.121094 L 4170.039062 922.121094 C 4181.675781 906.828125 4181.675781 906.828125 4190.457031 899.671875 L 4196.382812 894.753906 L 4202.835938 889.527344 L 4209.605469 883.960938 C 4215.691406 878.964844 4221.773438 873.972656 4227.910156 868.976562 C 4234.363281 863.71875 4240.761719 858.464844 4247.21875 853.207031 C 4259.011719 843.511719 4270.863281 833.832031 4282.710938 824.167969 C 4293.238281 815.585938 4303.710938 807.003906 4314.183594 798.421875 C 4367.242188 755.003906 4420.929688 711.679688 4474.9375 668.371094 M 4588.613281 730.296875 C 4573.855469 740.78125 4560.578125 751.355469 4548.203125 762.085938 L 4542.804688 766.742188 C 4537.199219 771.582031 4531.539062 776.4375 4525.933594 781.277344 L 4514.558594 791.09375 C 4501.230469 802.535156 4488.003906 813.992188 4474.9375 825.453125 L 4707.476562 825.453125 L 4679.386719 800.820312 L 4598.929688 730.296875 Z M 365.890625 538.65625 C 382.339844 539.988281 382.339844 539.988281 397.203125 543.1875 C 408.207031 547.535156 408.207031 547.535156 411.433594 552.820312 C 408.207031 558.109375 408.207031 558.109375 398.527344 561.789062 C 393.238281 563.121094 387.84375 564.402344 382.339844 565.65625 L 369.488281 568.6875 L 355.523438 571.949219 L 341.398438 575.242188 L 330.660156 577.746094 L 343.832031 577.746094 C 631.75 577.839844 919.722656 577.964844 1207.640625 578.132812 L 1226.261719 578.148438 C 1325.8125 578.210938 1425.3125 578.242188 1524.867188 578.273438 C 1626.90625 578.304688 1728.996094 578.347656 1831.085938 578.425781 C 1894.085938 578.457031 1957.140625 578.488281 2020.140625 578.488281 C 2063.304688 578.503906 2106.523438 578.535156 2149.6875 578.566406 C 2174.601562 578.582031 2199.515625 578.597656 2224.484375 578.597656 C 2247.28125 578.597656 2270.132812 578.613281 2292.933594 578.644531 C 2301.183594 578.644531 2309.4375 578.644531 2317.742188 578.644531 C 2328.953125 578.628906 2340.167969 578.644531 2351.382812 578.675781 L 2370.269531 578.675781 C 2389.417969 579.324219 2401.898438 580.855469 2418.296875 583.777344 C 2425.757812 587.269531 2425.757812 587.269531 2428.667969 591.335938 C 2427.976562 595.960938 2427.976562 595.960938 2423.480469 600.398438 C 2415.019531 603.644531 2415.019531 603.644531 2402.800781 606.445312 C 2386.929688 607.203125 2386.929688 607.203125 2367.835938 607.203125 L 2357.097656 607.234375 C 2345.246094 607.265625 2333.34375 607.25 2321.445312 607.21875 C 2312.875 607.234375 2304.304688 607.25 2295.683594 607.265625 C 2272.039062 607.296875 2248.445312 607.28125 2224.800781 607.265625 C 2199.304688 607.265625 2173.808594 607.296875 2148.363281 607.308594 C 2104.195312 607.339844 2060.078125 607.355469 2015.910156 607.355469 C 1952.0625 607.355469 1888.269531 607.386719 1824.421875 607.417969 C 1720.851562 607.480469 1617.277344 607.527344 1513.757812 607.542969 C 1413.148438 607.558594 1312.484375 607.589844 1211.875 607.636719 L 1193.09375 607.652344 L 1099.785156 607.695312 C 841.699219 607.820312 583.613281 607.898438 325.527344 607.945312 L 339.652344 611.097656 L 358.113281 615.226562 L 367.421875 617.285156 C 400.21875 624.628906 400.21875 624.628906 408.207031 627.582031 C 410.269531 632.265625 411.328125 635.1875 408.207031 639.671875 C 397.523438 644.203125 397.523438 644.203125 382.339844 647.21875 C 365.308594 647.789062 365.308594 647.789062 346.210938 647.21875 C 330.660156 644.773438 330.660156 644.773438 314.527344 641.1875 L 305.535156 639.210938 C 298.761719 637.722656 292.046875 636.226562 285.378906 634.710938 C 272.316406 631.785156 259.25 628.878906 246.128906 626.003906 C 136.421875 601.773438 136.421875 601.773438 128.804688 596.8125 C 129.175781 592.464844 132.453125 589.066406 138.539062 585.105469 C 150.757812 579.449219 169.957031 576.09375 188.578125 572.367188 L 215.027344 566.859375 L 228.832031 564.03125 C 251.949219 559.238281 274.695312 554.273438 297.441406 549.328125 C 305.585938 547.550781 313.785156 545.785156 321.984375 544.007812 L 332.40625 541.765625 C 345.152344 539.121094 349.863281 538.457031 365.890625 538.65625 M 3157.21875 443.316406 L 3167.585938 444.816406 C 3172.929688 447.816406 3172.929688 447.816406 3178.695312 451.804688 L 3185.308594 456.351562 L 3192.394531 461.332031 L 3199.851562 466.464844 C 3206.464844 471.042969 3213.078125 475.617188 3219.691406 480.210938 C 3226.511719 484.941406 3233.335938 489.65625 3240.160156 494.390625 C 3250.898438 501.78125 3261.53125 509.171875 3272.214844 516.546875 C 3288.5625 527.867188 3305.066406 539.167969 3321.621094 550.457031 L 3328.65625 555.25 C 3340.136719 563.105469 3351.828125 570.925781 3363.625 578.75 L 3371.027344 583.683594 C 3375.628906 586.730469 3380.234375 589.777344 3384.886719 592.835938 L 3390.972656 596.859375 L 3396.367188 600.382812 C 3400.121094 603.414062 3400.121094 603.414062 3400.121094 607.945312 L 3391.234375 608.609375 C 3353.253906 611.839844 3319.296875 616.15625 3291.578125 624.566406 C 3257.457031 640.738281 3241.484375 660.761719 3224.398438 678.945312 C 3194.722656 676.117188 3194.722656 676.117188 3183.085938 674.417969 C 3166.6875 660.316406 3171.554688 644.25 3172.082031 629.574219 C 3172.136719 627.023438 3172.1875 624.488281 3172.242188 621.9375 C 3172.347656 615.769531 3172.503906 609.597656 3172.769531 603.414062 L 3203.769531 606.445312 L 3201.757812 603.382812 C 3195.464844 593.410156 3190.066406 583.390625 3185.625 573.339844 L 3183.5625 568.839844 C 3181.445312 564.15625 3179.382812 559.484375 3177.265625 554.800781 L 3172.929688 545.199219 C 3169.382812 537.421875 3165.894531 529.644531 3162.402344 521.851562 C 3154.839844 532.289062 3148.964844 542.722656 3144.257812 553.300781 L 3142.25 557.816406 C 3140.132812 562.5 3138.015625 567.203125 3135.953125 571.886719 L 3131.5625 581.503906 C 3128.070312 589.3125 3124.582031 597.121094 3121.089844 604.929688 L 3157.21875 603.414062 C 3159.441406 617.671875 3153.9375 631.246094 3146.003906 645.253906 C 3143.992188 648.859375 3142.195312 652.476562 3140.449219 656.109375 C 3139.179688 658.414062 3137.859375 660.734375 3136.535156 663.035156 L 3135.054688 666.300781 C 3133.203125 669.328125 3133.203125 669.328125 3126.21875 674.417969 C 3114.320312 676.75 3104.058594 677.695312 3090.09375 678.945312 C 3072.160156 667.597656 3057.03125 656.015625 3042.273438 644.296875 L 3035.078125 638.667969 L 3028.308594 633.300781 L 3022.117188 628.433594 C 3017.730469 624.566406 3017.730469 624.566406 3017.730469 621.550781 L 3004.453125 620.375 C 2985.515625 618.398438 2968.796875 615.890625 2951.183594 613.046875 L 2933.144531 610.15625 L 2919.550781 607.945312 C 2930.871094 597.304688 2945.101562 587.195312 2960.492188 576.988281 C 2968.003906 571.996094 2975.464844 566.96875 2982.976562 561.960938 L 2987.734375 558.773438 C 3005.457031 546.898438 3022.914062 534.992188 3040.316406 523.085938 L 3069.515625 503.140625 C 3085.703125 492.101562 3101.886719 481.0625 3118.074219 470.019531 L 3142.988281 453.011719 L 3151.347656 447.324219 Z M 3095.222656 736.34375 C 3107.496094 736.621094 3107.496094 736.621094 3121.089844 737.859375 C 3135.6875 746.207031 3138.226562 755.808594 3143.199219 764.980469 C 3144.945312 768.117188 3146.746094 771.242188 3148.542969 774.363281 C 3155.367188 786.410156 3158.964844 798.113281 3157.21875 810.359375 C 3139.972656 809.433594 3126.113281 808.320312 3110.722656 805.828125 L 3113.207031 810.082031 C 3128.601562 837.25 3140.027344 864.601562 3152.085938 891.921875 L 3157.21875 891.921875 L 3158.59375 888.96875 C 3163.195312 878.84375 3167.796875 868.730469 3172.398438 858.617188 C 3174.144531 854.828125 3175.839844 851.058594 3177.582031 847.269531 C 3180.015625 841.839844 3182.503906 836.429688 3184.988281 831.003906 L 3187.316406 825.867188 L 3189.484375 821.105469 L 3191.441406 816.902344 C 3193.398438 813.375 3193.398438 813.375 3198.582031 808.84375 L 3172.769531 810.359375 C 3172.503906 802.90625 3172.292969 795.46875 3172.1875 788.03125 C 3172.136719 785.511719 3172.082031 782.992188 3171.976562 780.457031 C 3170.8125 746.933594 3170.8125 746.933594 3183.085938 739.359375 C 3196.414062 737.425781 3196.414062 737.425781 3208.898438 736.34375 C 3219.847656 743.886719 3226.671875 751.171875 3232.28125 759.210938 C 3241.429688 771.613281 3250.582031 783.949219 3270.945312 795.253906 C 3298.242188 803.527344 3332.890625 808.027344 3369.652344 811.765625 L 3379.4375 813.375 C 3384.09375 816.097656 3384.09375 816.097656 3384.625 819.421875 C 3380.65625 823.054688 3380.65625 823.054688 3374.097656 827.183594 L 3366.691406 831.914062 L 3358.4375 837.0625 C 3352.671875 840.789062 3346.855469 844.5 3341.089844 848.226562 L 3336.488281 851.179688 C 3319.453125 862.160156 3303.425781 873.261719 3287.398438 884.363281 L 3269.253906 896.902344 L 3264.652344 900.101562 C 3247.566406 911.917969 3230.375 923.714844 3213.128906 935.511719 L 3202.921875 942.484375 C 3198.160156 945.730469 3193.398438 948.980469 3188.691406 952.210938 L 3184.460938 955.101562 C 3176.050781 960.808594 3166.953125 966.4375 3157.21875 971.972656 L 3146.902344 970.457031 C 3142.089844 967.582031 3137.753906 964.628906 3133.574219 961.675781 L 3129.660156 958.90625 C 3126.855469 956.910156 3124.050781 954.933594 3121.25 952.9375 C 3113.738281 947.542969 3106.066406 942.160156 3098.449219 936.78125 L 3093.6875 933.410156 C 3078.773438 922.894531 3063.324219 912.457031 3047.773438 902.019531 L 3031.269531 890.949219 L 3026.933594 888.027344 C 3007.464844 874.914062 2988.105469 861.789062 2968.851562 848.644531 L 2956.210938 840.09375 C 2950.335938 836.074219 2944.414062 832.070312 2938.542969 828.050781 L 2933.199219 824.429688 C 2924.207031 818.292969 2916.058594 812.183594 2909.183594 805.828125 C 2918.546875 804.4375 2927.960938 803.046875 2937.324219 801.671875 L 2953.089844 799.335938 C 2971.230469 796.753906 2971.230469 796.753906 2982.976562 795.59375 C 2995.722656 794.265625 3006.410156 792.902344 3017.730469 790.722656 C 3028.148438 786.363281 3033.4375 781.769531 3039.046875 776.746094 C 3042.378906 774.039062 3045.710938 771.332031 3049.097656 768.628906 L 3054.015625 764.515625 C 3061.6875 758.40625 3070.625 752.484375 3079.722656 746.53125 L 3084.484375 743.410156 C 3088.027344 741.042969 3091.625 738.691406 3095.222656 736.34375 M 3441.433594 636.65625 C 3505.652344 644.390625 3569.65625 652.242188 3633.292969 660.347656 C 3711.898438 670.351562 3790.820312 680.167969 3869.691406 689.988281 L 3879.421875 691.191406 C 3919.464844 696.1875 3959.507812 701.152344 3999.550781 706.128906 C 3985.324219 710.550781 3972.152344 712.4375 3952.84375 714.773438 L 3943.21875 715.949219 C 3936.289062 716.796875 3929.359375 717.648438 3922.375 718.484375 C 3907.195312 720.324219 3892.066406 722.179688 3876.882812 724.050781 L 3852.339844 727.050781 C 3807.21875 732.570312 3762.253906 738.199219 3717.292969 743.84375 C 3703.433594 745.589844 3689.523438 747.320312 3675.664062 749.066406 C 3637.628906 753.832031 3599.648438 758.59375 3561.722656 763.386719 C 3548.023438 765.117188 3534.320312 766.851562 3520.621094 768.566406 C 3511.417969 769.742188 3502.265625 770.902344 3493.113281 772.058594 C 3487.71875 772.742188 3482.378906 773.421875 3476.824219 774.117188 L 3462.804688 775.894531 C 3451.800781 777.117188 3451.800781 777.117188 3441.433594 777.117188 L 3431.121094 786.191406 C 3420.804688 781.664062 3420.804688 781.664062 3418.53125 777.78125 C 3414.933594 772.167969 3410.488281 768.410156 3400.121094 763.523438 C 3382.136719 759.503906 3362.035156 756.691406 3341.828125 753.753906 C 3311.203125 749.269531 3290.148438 744.769531 3270.945312 736.34375 L 3262.324219 733.171875 L 3255.449219 730.296875 L 3255.449219 727.28125 C 3299.617188 724.714844 3344.105469 722.953125 3388.75 721.28125 C 3405.675781 720.648438 3422.601562 720 3439.53125 719.351562 C 3470.898438 718.144531 3502.265625 716.953125 3533.632812 715.777344 C 3555.585938 714.957031 3577.539062 714.125 3599.4375 713.273438 C 3607.796875 712.949219 3616.152344 712.640625 3624.457031 712.328125 C 3636.097656 711.914062 3647.679688 711.464844 3659.265625 711 L 3679.261719 710.257812 L 3694.652344 709.160156 L 3704.96875 704.613281 L 3693.488281 704.414062 C 3644.1875 703.421875 3595.472656 701.597656 3546.488281 699.667969 L 3520.675781 698.644531 C 3498.300781 697.78125 3475.921875 696.898438 3453.546875 696 C 3430.589844 695.105469 3407.6875 694.191406 3384.730469 693.296875 C 3339.925781 691.53125 3295.070312 689.769531 3250.265625 688.007812 C 3259.574219 682.210938 3259.574219 682.210938 3268.671875 680.027344 L 3278.40625 678.359375 L 3289.566406 676.425781 C 3312.261719 672.730469 3335.113281 669.128906 3358.121094 665.632812 L 3372.984375 663.328125 L 3387.164062 661.164062 L 3399.964844 659.203125 C 3410.4375 657.792969 3410.4375 657.792969 3420.804688 657.792969 L 3422.65625 655.089844 L 3425.300781 651.46875 L 3427.839844 647.914062 C 3431.332031 643.988281 3436.199219 640.398438 3441.433594 636.65625 M 4867.117188 538.828125 C 4884.308594 540.066406 4893.25 541.597656 4907.003906 544.78125 L 4920.28125 547.78125 L 4934.191406 551.027344 L 4963.179688 557.628906 L 4977.671875 560.96875 C 5001.160156 566.304688 5025.121094 571.484375 5049.085938 576.648438 C 5080.03125 583.375 5080.03125 583.375 5089.867188 586.808594 C 5093.464844 595.0625 5093.464844 595.0625 5089.867188 598.882812 C 5060.191406 608.996094 5020.042969 616.679688 4983.96875 624.707031 C 4975.347656 626.621094 4966.722656 628.554688 4958.15625 630.488281 C 4945.828125 633.257812 4933.398438 636.007812 4920.96875 638.730469 L 4909.542969 641.3125 C 4891.34375 645.238281 4881.03125 647.125 4858.125 647.898438 C 4841.832031 647.21875 4841.832031 647.21875 4826.96875 644.867188 C 4815.96875 641.1875 4815.96875 641.1875 4810.464844 636.085938 C 4810.78125 630.613281 4810.78125 630.613281 4818.980469 626.191406 C 4833.105469 620.933594 4847.335938 617.777344 4866.378906 614.175781 L 4875.792969 612.335938 C 4883.359375 610.867188 4891.027344 609.398438 4898.644531 607.945312 L 4881.507812 607.945312 C 4744.078125 607.882812 4606.652344 607.804688 4469.226562 607.664062 C 4402.734375 607.621094 4336.296875 607.558594 4269.804688 607.542969 C 4211.882812 607.527344 4153.960938 607.480469 4096.035156 607.417969 C 4065.355469 607.386719 4034.730469 607.355469 4004.046875 607.355469 C 3975.167969 607.355469 3946.285156 607.339844 3917.457031 607.28125 C 3906.824219 607.28125 3896.246094 607.265625 3885.613281 607.28125 C 3871.171875 607.296875 3856.730469 607.265625 3842.289062 607.21875 L 3829.488281 607.265625 C 3817.746094 607.203125 3817.746094 607.203125 3798.015625 606.445312 C 3785.214844 603.691406 3785.214844 603.691406 3777.332031 600.398438 C 3772.464844 595.203125 3772.464844 595.203125 3772.148438 589.824219 C 3777.964844 585.585938 3777.964844 585.585938 3787.644531 582.277344 C 3810.285156 578.71875 3832.554688 578.8125 3857.628906 578.828125 L 3871.066406 578.796875 C 3885.875 578.78125 3900.742188 578.78125 3915.550781 578.765625 L 3947.5 578.71875 C 3976.382812 578.691406 4005.316406 578.660156 4034.199219 578.644531 C 4064.40625 578.613281 4094.609375 578.582031 4124.8125 578.535156 C 4181.996094 578.472656 4239.175781 578.410156 4296.359375 578.363281 C 4361.472656 578.304688 4426.589844 578.226562 4491.707031 578.148438 C 4625.644531 577.992188 4759.578125 577.855469 4893.460938 577.746094 L 4879.335938 574.699219 L 4860.875 570.664062 L 4851.566406 568.671875 C 4833.527344 564.695312 4820.410156 561.234375 4810.78125 555.078125 C 4811.152344 550.457031 4811.152344 550.457031 4815.96875 546.019531 C 4825.648438 542.523438 4825.648438 542.523438 4836.648438 539.988281 C 4852.148438 538.472656 4852.148438 538.472656 4867.117188 538.828125 M 2863.957031 639.796875 L 2873.054688 641.1875 C 2877.234375 644.3125 2877.234375 644.3125 2880.511719 648.253906 C 2885.273438 652.476562 2885.273438 652.476562 2893.683594 656.277344 C 2914.421875 660.421875 2936.902344 662.929688 2960.230469 665.542969 C 3021.90625 672.609375 3021.90625 672.609375 3039.203125 677.648438 C 3046.558594 680.523438 3053.117188 683.355469 3059.042969 686.492188 C 3033.914062 688.75 3009.792969 690.234375 2983.609375 691.238281 L 2972.289062 691.6875 C 2960.019531 692.183594 2947.746094 692.648438 2935.472656 693.109375 C 2926.902344 693.449219 2918.335938 693.773438 2909.765625 694.117188 C 2891.832031 694.8125 2873.953125 695.507812 2856.023438 696.203125 C 2833.066406 697.085938 2810.105469 697.964844 2787.203125 698.878906 C 2769.480469 699.558594 2751.816406 700.238281 2734.09375 700.933594 L 2708.757812 701.925781 C 2696.90625 702.371094 2685.113281 702.835938 2673.261719 703.285156 L 2652.898438 704.074219 C 2638.246094 704.535156 2624.226562 704.738281 2609.519531 704.613281 L 2614.652344 707.644531 C 2627.453125 708.417969 2639.882812 709.003906 2652.792969 709.484375 L 2664.90625 709.964844 C 2678.128906 710.503906 2691.40625 711.015625 2704.683594 711.527344 C 2713.886719 711.882812 2723.089844 712.253906 2732.296875 712.609375 C 2756.574219 713.582031 2780.855469 714.527344 2805.136719 715.46875 C 2834.597656 716.613281 2864.007812 717.773438 2893.472656 718.933594 C 2916.378906 719.84375 2939.335938 720.742188 2962.238281 721.636719 L 2975.039062 722.132812 C 2982.921875 722.441406 2990.804688 722.75 2998.6875 723.046875 C 3017.253906 723.773438 3035.609375 724.621094 3053.910156 725.765625 C 3052.21875 730.003906 3047.296875 732.492188 3039.417969 736.125 C 3022.699219 741.863281 3001.804688 743.640625 2978.054688 746.113281 L 2961.234375 747.863281 C 2922.988281 751.789062 2922.988281 751.789062 2890.085938 758.4375 C 2878.34375 763.230469 2871.890625 768.363281 2867.871094 774.101562 C 2850.363281 773.203125 2835.074219 771.921875 2818.78125 769.847656 L 2805.136719 768.132812 L 2790.375 766.230469 L 2774.773438 764.253906 C 2763.609375 762.84375 2752.449219 761.421875 2741.289062 760 C 2711.664062 756.226562 2682.042969 752.46875 2652.421875 748.710938 L 2633.960938 746.378906 C 2569.636719 738.230469 2505.15625 730.1875 2440.621094 722.179688 L 2408.617188 718.207031 C 2384.285156 715.191406 2359.953125 712.175781 2335.621094 709.160156 L 2335.621094 704.613281 C 2437.871094 691.671875 2540.066406 678.730469 2642.527344 665.957031 C 2675.0625 661.890625 2707.59375 657.824219 2739.914062 653.652344 C 2753.453125 651.902344 2766.945312 650.171875 2780.484375 648.457031 C 2789.792969 647.25 2799.050781 646.042969 2808.308594 644.835938 L 2825.078125 642.6875 L 2839.625 640.800781 C 2852.371094 639.671875 2852.371094 639.671875 2863.957031 639.796875 "/>
<path style=" stroke:none;fill-rule:nonzero;fill:rgb(20.392157%,38.039216%,45.09804%);fill-opacity:1;" d="M 3183.085938 678.945312 C 3202.128906 681.203125 3202.128906 681.203125 3214.082031 683.476562 L 3214.082031 686.492188 L 3223.445312 687.34375 C 3234.765625 689.523438 3234.765625 689.523438 3243.8125 694.144531 C 3252.167969 700.671875 3253.808594 706.792969 3250.265625 713.691406 C 3245.554688 718.25 3239.367188 721.949219 3229.582031 725.765625 C 3213.660156 730.035156 3198.425781 732.832031 3177.902344 734.828125 C 3153.992188 735.679688 3132.09375 735.429688 3109.769531 732.664062 C 3089.457031 729.246094 3076.601562 724.917969 3064.59375 719.070312 C 3056.554688 713.441406 3055.125 708.632812 3056.394531 702.574219 C 3059.941406 697.269531 3065.652344 693.449219 3076.601562 689.105469 C 3107.285156 679.441406 3138.597656 677.046875 3183.085938 678.945312 M 3129.816406 699.621094 C 3120.296875 702.929688 3120.296875 702.929688 3118.179688 706.886719 C 3120.191406 710.984375 3120.191406 710.984375 3132.355469 714.246094 L 3146.902344 716.707031 C 3160.605469 716.96875 3160.605469 716.96875 3172.769531 715.191406 C 3183.136719 712.777344 3183.136719 712.777344 3188.269531 709.160156 C 3188.269531 704.429688 3188.269531 704.429688 3183.085938 700.082031 C 3168.855469 696.867188 3168.855469 696.867188 3154.996094 696.496094 C 3141.085938 696.789062 3141.085938 696.789062 3129.816406 699.621094 "/>
</g>
</svg>
